<?xml version="1.0" encoding="UTF-8"?>
<svg version="1.1" xmlns="http://www.w3.org/2000/svg" width="500" height="500">
<path d="M0 0 C-0.33 1.65 -0.66 3.3 -1 5 C-1.97839844 5.24234375 -2.95679688 5.4846875 -3.96484375 5.734375 C-15.81269465 8.73227928 -25.1799954 12.50369179 -35 20 C-36.05380859 20.80244141 -36.05380859 20.80244141 -37.12890625 21.62109375 C-49.45041797 31.67602602 -56.55461187 46.42975528 -59 62 C-59.28097381 65.44327998 -59.33433847 68.85885665 -59.3125 72.3125 C-59.30758545 73.23675781 -59.3026709 74.16101563 -59.29760742 75.11328125 C-59.10994849 86.07641245 -56.13744549 95.15638628 -52.0859375 105.28515625 C-51.33280281 107.16799298 -50.64127108 109.07618675 -50 111 C-49.34 111 -48.68 111 -48 111 C-44 116.41176471 -44 116.41176471 -44 119 C-43.34 119 -42.68 119 -42 119 C-42 119.66 -42 120.32 -42 121 C-41.01 121.33 -40.02 121.66 -39 122 C-39 122.66 -39 123.32 -39 124 C-38.443125 124.26167969 -37.88625 124.52335937 -37.3125 124.79296875 C-34.74093867 126.13521951 -32.40849969 127.69608131 -30 129.3125 C-14.9984009 138.84455967 2.38419293 143.44799477 19.98583984 139.56152344 C32.82345625 136.39858828 43.64046375 130.48466374 53 121 C53.33 120.34 53.66 119.68 54 119 C54.66 119 55.32 119 56 119 C56 118.34 56 117.68 56 117 C56.66 117 57.32 117 58 117 C58.20625 116.236875 58.4125 115.47375 58.625 114.6875 C59.83003501 111.45581519 61.1929606 108.74453985 62.875 105.75 C65.72866004 100.65118096 67.98030574 95.47693561 70 90 C70.99 90 71.98 90 73 90 C74.47062797 109.08548292 66.17127013 127.46027044 53.9453125 141.84375 C53.30335938 142.5553125 52.66140625 143.266875 52 144 C51.37867188 144.6909375 50.75734375 145.381875 50.1171875 146.09375 C47.012431 149.37323306 44.47916748 151.77840887 40 153 C40 153.66 40 154.32 40 155 C23.8025192 169.2263588 0.411027 172.29730032 -20.19726562 171.23193359 C-34.45022752 170.05246375 -47.81390777 164.23164564 -60 157 C-60 156.34 -60 155.68 -60 155 C-61.65 154.34 -63.3 153.68 -65 153 C-65 152.34 -65 151.68 -65 151 C-65.8353125 150.6596875 -65.8353125 150.6596875 -66.6875 150.3125 C-69.6865221 148.61035232 -71.64499245 146.52322238 -74 144 C-74.45246094 143.52949219 -74.90492188 143.05898438 -75.37109375 142.57421875 C-92.27493263 124.11284458 -98.04940108 101.63690071 -97.375 77.29296875 C-96.29151874 54.658368 -85.88317897 34.98623999 -69.625 19.34765625 C-54.20634315 5.55805392 -21.10764293 -10.55382146 0 0 Z " fill="#1D3656" transform="translate(261,114)"/>
<path d="M0 0 C6.47693424 5.06121091 12.19736364 11.52513736 14.14453125 19.67578125 C14.43997418 24.03356443 14.38707061 28.31680993 14.14453125 32.67578125 C12.56865234 33.14757812 12.56865234 33.14757812 10.9609375 33.62890625 C0.69161431 36.74053256 0.69161431 36.74053256 -9.15625 40.9765625 C-10.85546875 41.67578125 -10.85546875 41.67578125 -13.85546875 41.67578125 C-13.85546875 42.33578125 -13.85546875 42.99578125 -13.85546875 43.67578125 C-14.51546875 43.67578125 -15.17546875 43.67578125 -15.85546875 43.67578125 C-15.85546875 43.01578125 -15.85546875 42.35578125 -15.85546875 41.67578125 C-16.37109375 41.58039063 -16.88671875 41.485 -17.41796875 41.38671875 C-20.75252474 40.41413992 -23.752265 38.83366063 -26.85546875 37.30078125 C-33.35744222 34.16126377 -39.74583654 32.0659328 -46.85546875 30.67578125 C-46.67809669 20.38820175 -45.2141438 12.55334619 -38.23046875 4.73828125 C-37.44671875 4.05765625 -36.66296875 3.37703125 -35.85546875 2.67578125 C-35.3759375 2.17304688 -34.89640625 1.6703125 -34.40234375 1.15234375 C-26.41741043 -6.46963806 -8.92062737 -5.39492797 0 0 Z " fill="#D97264" transform="translate(278.85546875,182.32421875)"/>
<path d="M0 0 C4.67729286 -0.07476614 9.35422951 -0.12888954 14.03198242 -0.16479492 C15.61960926 -0.17978013 17.20719543 -0.20017546 18.79467773 -0.22631836 C37.70545039 -0.52969974 37.70545039 -0.52969974 46 5 C46 5.66 46 6.32 46 7 C46.66 7 47.32 7 48 7 C50.37310654 10.55965981 50.26915041 12.21962224 50.25 16.4375 C50.25773437 18.13712891 50.25773437 18.13712891 50.265625 19.87109375 C50.01398568 22.83525691 49.54596941 24.50313671 48 27 C47.34 27 46.68 27 46 27 C46 27.66 46 28.32 46 29 C45.34 29 44.68 29 44 29 C44 29.66 44 30.32 44 31 C42.02 31.99 40.04 32.98 38 34 C38.66 34.928125 39.32 35.85625 40 36.8125 C42 40 42 40 42 43 C42.66 43 43.32 43 44 43 C44 43.99 44 44.98 44 46 C44.66 46 45.32 46 46 46 C46.598125 47.093125 47.19625 48.18625 47.8125 49.3125 C49.92411595 53.06256755 49.92411595 53.06256755 53 56 C55.60611077 56.72197162 55.60611077 56.72197162 58 57 C58.5625 58.9375 58.5625 58.9375 59 61 C56.88842154 63.11157846 52.64296433 62.36816449 49.75 62.4375 C48.98558594 62.48326172 48.22117187 62.52902344 47.43359375 62.57617188 C43.15328685 62.66118661 41.5647868 62.52203729 38.31640625 59.51953125 C37.51573409 58.36564145 36.74575056 57.19012339 36 56 C35.53480957 55.32187256 35.06961914 54.64374512 34.59033203 53.94506836 C33.08518589 51.73585435 31.63224786 49.49910014 30.1875 47.25 C29.43436523 46.09951172 29.43436523 46.09951172 28.66601562 44.92578125 C28.19228516 44.19230469 27.71855469 43.45882812 27.23046875 42.703125 C26.58694458 41.70780762 26.58694458 41.70780762 25.93041992 40.69238281 C25 39 25 39 25 37 C23.02 36.67 21.04 36.34 19 36 C19.11386459 38.77170395 19.24060778 41.54178046 19.375 44.3125 C19.4059375 45.09818359 19.436875 45.88386719 19.46875 46.69335938 C19.50742187 47.45068359 19.54609375 48.20800781 19.5859375 48.98828125 C19.63306885 50.03302612 19.63306885 50.03302612 19.68115234 51.09887695 C19.92118253 53.32532739 19.92118253 53.32532739 22 56 C24.05003955 57.19232613 24.05003955 57.19232613 26 58 C25.67 59.32 25.34 60.64 25 62 C16.75 62 8.5 62 0 62 C0 60.35 0 58.7 0 57 C1.98 56.34 3.96 55.68 6 55 C5.67 39.16 5.34 23.32 5 7 C2.525 6.01 2.525 6.01 0 5 C0 3.35 0 1.7 0 0 Z M19 7 C18.9008343 8.62257544 18.86920223 10.24939831 18.8671875 11.875 C18.86589844 12.85984375 18.86460937 13.8446875 18.86328125 14.859375 C18.86714844 15.89578125 18.87101562 16.9321875 18.875 18 C18.87113281 19.03640625 18.86726563 20.0728125 18.86328125 21.140625 C18.86457031 22.12546875 18.86585938 23.1103125 18.8671875 24.125 C18.86831543 25.03507812 18.86944336 25.94515625 18.87060547 26.8828125 C18.76439991 28.9852848 18.76439991 28.9852848 20 30 C22.23538768 29.97354602 22.23538768 29.97354602 24.8125 29.6875 C25.68519531 29.60886719 26.55789063 29.53023438 27.45703125 29.44921875 C31.9604525 28.65368351 33.59468618 27.55867581 36.3125 23.8125 C38.75860676 19.20806374 37.79084433 15.58821779 36.3125 10.75 C34.24142263 7.9885635 32.23452002 7.1761891 29 6 C23.64388275 5.23179538 23.64388275 5.23179538 19 7 Z " fill="#EFE0CF" transform="translate(266,297)"/>
<path d="M0 0 C1.02577148 0.00676758 1.02577148 0.00676758 2.07226562 0.01367188 C3.73571604 0.0253044 5.3991205 0.04323306 7.0625 0.0625 C6.44800003 3.40072957 5.71689171 6.08459492 4.0625 9.0625 C3.4025 9.0625 2.7425 9.0625 2.0625 9.0625 C1.835625 9.78566406 1.60875 10.50882813 1.375 11.25390625 C-3.1355943 20.90604108 -15.37380665 27.9506082 -25 31.8125 C-26.30586647 32.24951274 -27.61859727 32.66656697 -28.9375 33.0625 C-29.57558594 33.26746094 -30.21367187 33.47242188 -30.87109375 33.68359375 C-46.57931822 37.98925074 -63.19323567 34.61875327 -77.27734375 27.015625 C-77.82519531 26.70109375 -78.37304688 26.3865625 -78.9375 26.0625 C-78.9375 25.0725 -78.9375 24.0825 -78.9375 23.0625 C-77.7515625 22.794375 -76.565625 22.52625 -75.34375 22.25 C-64.61652427 19.69945521 -55.39564536 16.17133868 -45.6953125 10.98632812 C-31.8344159 3.70165691 -15.63459157 -0.13835922 0 0 Z " fill="#987CA2" transform="translate(313.9375,216.9375)"/>
<path d="M0 0 C1.2065625 0.0309375 1.2065625 0.0309375 2.4375 0.0625 C2.4375 1.7125 2.4375 3.3625 2.4375 5.0625 C2.98019531 4.78535156 3.52289063 4.50820313 4.08203125 4.22265625 C4.79746094 3.86042969 5.51289063 3.49820312 6.25 3.125 C6.95769531 2.76535156 7.66539062 2.40570313 8.39453125 2.03515625 C12.59085235 0.03729018 15.81261787 -0.39240644 20.4375 0.0625 C25.07803817 2.15660567 28.51733759 4.23023569 30.4375 9.0625 C30.75634766 12.08691406 30.75634766 12.08691406 30.8515625 15.578125 C30.90957031 17.45371094 30.90957031 17.45371094 30.96875 19.3671875 C30.9996875 20.66914063 31.030625 21.97109375 31.0625 23.3125 C31.12050781 25.28863281 31.12050781 25.28863281 31.1796875 27.3046875 C31.27396182 30.55715161 31.3595675 33.80960996 31.4375 37.0625 C33.0875 37.7225 34.7375 38.3825 36.4375 39.0625 C36.4375 40.7125 36.4375 42.3625 36.4375 44.0625 C28.8475 44.0625 21.2575 44.0625 13.4375 44.0625 C13.1075 42.7425 12.7775 41.4225 12.4375 40.0625 C14.9125 39.5675 14.9125 39.5675 17.4375 39.0625 C17.46647435 34.79168086 17.48428996 30.52088691 17.5 26.25 C17.51256836 24.42758789 17.51256836 24.42758789 17.52539062 22.56835938 C17.52861328 21.40498047 17.53183594 20.24160156 17.53515625 19.04296875 C17.54039307 17.96942139 17.54562988 16.89587402 17.55102539 15.78979492 C17.55944588 12.96750635 17.55944588 12.96750635 16.4375 10.0625 C9.46292755 9.70565524 9.46292755 9.70565524 3.4375 13.0625 C2.66897054 15.70194009 2.66897054 15.70194009 2.7734375 18.71875 C2.76699219 19.82347656 2.76054687 20.92820312 2.75390625 22.06640625 C2.78291016 23.79697266 2.78291016 23.79697266 2.8125 25.5625 C2.79316406 26.71621094 2.77382812 27.86992187 2.75390625 29.05859375 C2.76035156 30.16332031 2.76679688 31.26804687 2.7734375 32.40625 C2.77907715 33.41880859 2.7847168 34.43136719 2.79052734 35.47460938 C3.20544408 38.30914173 3.20544408 38.30914173 5.97900391 39.91601562 C6.79030762 40.29435547 7.60161133 40.67269531 8.4375 41.0625 C8.1075 42.0525 7.7775 43.0425 7.4375 44.0625 C0.1775 44.0625 -7.0825 44.0625 -14.5625 44.0625 C-14.8925 42.7425 -15.2225 41.4225 -15.5625 40.0625 C-13.0875 39.5675 -13.0875 39.5675 -10.5625 39.0625 C-10.5625 29.4925 -10.5625 19.9225 -10.5625 10.0625 C-11.8825 9.4025 -13.2025 8.7425 -14.5625 8.0625 C-14.5625 6.7425 -14.5625 5.4225 -14.5625 4.0625 C-11.02167084 1.9380025 -7.61258109 1.59741637 -3.5625 1.0625 C-2.5625 0.0625 -2.5625 0.0625 0 0 Z " fill="#ECDFD0" transform="translate(184.5625,314.9375)"/>
<path d="M0 0 C0.01458252 0.98395752 0.02916504 1.96791504 0.04418945 2.98168945 C0.10216998 6.63293774 0.17940185 10.28356911 0.26245117 13.93432617 C0.29570188 15.51430243 0.32373346 17.09439752 0.34643555 18.67456055 C0.37998016 20.94631579 0.43229227 23.21698203 0.48828125 25.48828125 C0.49467117 26.19463211 0.5010611 26.90098297 0.50764465 27.6287384 C0.59429281 30.51986829 0.68024615 32.53666665 2.34838867 34.95385742 C5.48132557 36.93828234 8.89224908 36.23321072 12.375 35.5 C13.179375 35.2525 13.179375 35.2525 14 35 C14 34.34 14 33.68 14 33 C14.66 33 15.32 33 16 33 C16 24.75 16 16.5 16 8 C14.68 7.67 13.36 7.34 12 7 C11.67 6.01 11.34 5.02 11 4 C11.33 3.34 11.66 2.68 12 2 C14.07421875 1.62109375 14.07421875 1.62109375 16.6875 1.4375 C20.51078923 1.15321901 24.2209378 0.64740127 28 0 C28.02505615 1.03930664 28.0501123 2.07861328 28.07592773 3.14941406 C28.17020926 7.01102703 28.27037908 10.87246883 28.37231445 14.73388672 C28.41558489 16.40409334 28.45726549 18.07434194 28.49731445 19.74462891 C28.55520851 22.14758955 28.6188474 24.55034041 28.68359375 26.953125 C28.70030624 27.69806213 28.71701874 28.44299927 28.73423767 29.21051025 C28.83061695 32.59509934 28.96070174 35.7600524 30 39 C31.32 39.33 32.64 39.66 34 40 C33.67 41.32 33.34 42.64 33 44 C27.72 44 22.44 44 17 44 C16.67 43.01 16.34 42.02 16 41 C14.865625 41.639375 13.73125 42.27875 12.5625 42.9375 C7.24177517 45.55102505 2.33839767 46.9337081 -3.5 45.30078125 C-9.4067795 42.90588507 -9.4067795 42.90588507 -11.10058594 40.31933594 C-12.26710698 37.31120621 -12.23942766 34.81423794 -12.23828125 31.58984375 C-12.25439453 30.35298828 -12.27050781 29.11613281 -12.28710938 27.84179688 C-12.30406154 25.23507596 -12.30923504 22.62825231 -12.30273438 20.02148438 C-12.32271484 18.78591797 -12.34269531 17.55035156 -12.36328125 16.27734375 C-12.36626221 15.14546631 -12.36924316 14.01358887 -12.37231445 12.84741211 C-12.70043896 9.77160887 -12.70043896 9.77160887 -15.53979492 8.35766602 C-16.3516626 7.90963623 -17.16353027 7.46160645 -18 7 C-18 5.68 -18 4.36 -18 3 C-16.12743583 2.49095343 -14.25180659 1.99317545 -12.375 1.5 C-11.33085938 1.2215625 -10.28671875 0.943125 -9.2109375 0.65625 C-6.03572577 0.00730162 -3.22844502 -0.04730322 0 0 Z " fill="#E2D4C4" transform="translate(133,315)"/>
<path d="M0 0 C8.25 0 16.5 0 25 0 C25.33 1.32 25.66 2.64 26 4 C24 6 24 6 20 7 C20 22.51 20 38.02 20 54 C30.74689927 54.48507125 30.74689927 54.48507125 36 53 C36 52.34 36 51.68 36 51 C36.66 51 37.32 51 38 51 C38.99 48.03 39.98 45.06 41 42 C42.65 42.33 44.3 42.66 46 43 C45.69277348 45.97979894 45.37948528 48.95873759 45.0625 51.9375 C44.97548828 52.78763672 44.88847656 53.63777344 44.79882812 54.51367188 C44.71181641 55.32255859 44.62480469 56.13144531 44.53515625 56.96484375 C44.456604 57.7137085 44.37805176 58.46257324 44.29711914 59.23413086 C44 61 44 61 43 62 C41.64905018 62.09268999 40.29332909 62.11747326 38.93920898 62.11352539 C38.07839218 62.11344986 37.21757538 62.11337433 36.33067322 62.11329651 C35.39526199 62.10813522 34.45985077 62.10297394 33.49609375 62.09765625 C32.54307877 62.0962413 31.59006378 62.09482635 30.60816956 62.09336853 C27.55124835 62.08775152 24.49439923 62.07519616 21.4375 62.0625 C19.37044376 62.05748719 17.30338638 62.05292391 15.23632812 62.04882812 C10.15752412 62.03777656 5.0787743 62.02050055 0 62 C-0.495 60.515 -0.495 60.515 -1 59 C0 57 0 57 5 55 C5 39.16 5 23.32 5 7 C2.525 6.01 2.525 6.01 0 5 C-0.33 4.01 -0.66 3.02 -1 2 C-0.67 1.34 -0.34 0.68 0 0 Z " fill="#EADCCC" transform="translate(70,297)"/>
<path d="M0 0 C5.22128676 4.83924139 6.7700167 7.72605019 7.171875 14.8671875 C7.23801734 17.32768254 7.28429849 19.78877768 7.3125 22.25 C7.34214844 23.51070313 7.37179687 24.77140625 7.40234375 26.0703125 C7.47283525 29.17193866 7.52563741 32.27282197 7.5625 35.375 C9.2125 35.705 10.8625 36.035 12.5625 36.375 C12.5625 37.695 12.5625 39.015 12.5625 40.375 C11.9025 40.375 11.2425 40.375 10.5625 40.375 C10.5625 41.035 10.5625 41.695 10.5625 42.375 C2.61304082 44.78235256 2.61304082 44.78235256 -1.5 43.1875 C-2.139375 42.589375 -2.77875 41.99125 -3.4375 41.375 C-3.4375 40.385 -3.4375 39.395 -3.4375 38.375 C-4.00597656 38.72433594 -4.57445312 39.07367188 -5.16015625 39.43359375 C-9.88996262 42.22094208 -13.80421021 44.375 -19.4375 44.375 C-23.06275975 42.98066933 -26.0052556 41.44730872 -28.4375 38.375 C-29.90203029 33.98140912 -30.03616799 30.17100396 -28.5625 25.75 C-23.59806321 20.20151183 -15.37299813 17.68683271 -8.4375 15.375 C-7.4475 15.375 -6.4575 15.375 -5.4375 15.375 C-5.540625 14.09625 -5.64375 12.8175 -5.75 11.5 C-5.80800781 10.78070313 -5.86601562 10.06140625 -5.92578125 9.3203125 C-6.31143036 6.97980784 -6.31143036 6.97980784 -9.4375 5.375 C-11.50660593 5.34750522 -11.50660593 5.34750522 -13.625 5.75 C-15.5121875 6.059375 -15.5121875 6.059375 -17.4375 6.375 C-17.5921875 7.5196875 -17.5921875 7.5196875 -17.75 8.6875 C-18.49874739 11.61442162 -18.95442929 12.69005916 -21.4375 14.375 C-24.125 14.5625 -24.125 14.5625 -26.4375 14.375 C-27.3261404 10.9012239 -27.72208564 9.01906224 -26.25 5.6875 C-20.08955262 -2.17238113 -8.93973711 -4.22605754 0 0 Z M-17.4375 27.375 C-18.44059237 30.55159226 -18.44059237 30.55159226 -17.4375 33.375 C-14.16786051 35.55475966 -13.22020322 35.74404422 -9.4375 35.375 C-8.1175 34.715 -6.7975 34.055 -5.4375 33.375 C-5.4375 29.415 -5.4375 25.455 -5.4375 21.375 C-10.30636823 21.375 -13.89281724 24.17101272 -17.4375 27.375 Z " fill="#F7E8D6" transform="translate(251.4375,316.625)"/>
<path d="M0 0 C3.7229703 2.6592645 6.55543557 5.73587115 8.625 9.875 C8.625 13.175 8.625 16.475 8.625 19.875 C0.045 20.205 -8.535 20.535 -17.375 20.875 C-16.26674779 29.25906693 -16.26674779 29.25906693 -13.1875 32.375 C-9.73914549 34.2141224 -7.28905025 34.80633245 -3.375 34.875 C-0.0548394 33.55946467 2.1055934 32.3944066 4.625 29.875 C6.75 30.25 6.75 30.25 8.625 30.875 C8.625 32.195 8.625 33.515 8.625 34.875 C7.965 34.875 7.305 34.875 6.625 34.875 C6.398125 35.4525 6.17125 36.03 5.9375 36.625 C4.02235498 39.90810575 1.45305459 42.27864104 -2.20703125 43.47265625 C-9.26779377 44.783032 -16.10534273 44.56303369 -22.375 40.875 C-26.33747607 37.68300539 -28.84629737 34.80314638 -30.375 29.875 C-31.22464263 21.14146408 -30.99604592 13.48734797 -26.375 5.875 C-25.715 5.875 -25.055 5.875 -24.375 5.875 C-24.375 5.215 -24.375 4.555 -24.375 3.875 C-23.055 3.545 -21.735 3.215 -20.375 2.875 C-20.375 2.215 -20.375 1.555 -20.375 0.875 C-13.85286821 -1.94538132 -6.72068317 -2.24022772 0 0 Z M-17.375 8.875 C-17.705 11.185 -18.035 13.495 -18.375 15.875 C-10.455 15.38 -10.455 15.38 -2.375 14.875 C-2.53311932 9.39726669 -2.53311932 9.39726669 -5.125 4.875 C-10.86152452 2.32543355 -13.65194707 4.01434756 -17.375 8.875 Z " fill="#EEDFCE" transform="translate(419.375,316.125)"/>
<path d="M0 0 C1.21171875 -0.02578125 2.4234375 -0.0515625 3.671875 -0.078125 C7.5248711 0.27520652 9.93175572 1.31605395 13.25 3.25 C13.25 6.88 13.25 10.51 13.25 14.25 C11.6 14.25 9.95 14.25 8.25 14.25 C6.43116991 11.8667054 5.25 10.29181663 5.25 7.25 C-1.03851034 5.95383728 -1.03851034 5.95383728 -6.75 8.25 C-6.69122264 10.68227736 -6.69122264 10.68227736 -5.75 13.25 C-3.24193522 14.81139351 -3.24193522 14.81139351 -0.125 15.8125 C0.95910156 16.22886719 2.04320312 16.64523437 3.16015625 17.07421875 C4.68962891 17.65623047 4.68962891 17.65623047 6.25 18.25 C10.37651421 20.00825388 12.82934385 21.56643376 15.25 25.5 C16.4729902 30.08621326 16.25053605 32.63214131 15.25 37.25 C14.59 38.24 13.93 39.23 13.25 40.25 C12.59 40.25 11.93 40.25 11.25 40.25 C11.25 40.91 11.25 41.57 11.25 42.25 C3.93227366 46.29733506 -2.96558092 47.78634171 -11.19140625 45.6015625 C-16.21306022 43.78693978 -16.21306022 43.78693978 -17.75 42.25 C-17.82244053 40.23035801 -17.83377188 38.20832876 -17.8125 36.1875 C-17.80347656 35.08277344 -17.79445313 33.97804688 -17.78515625 32.83984375 C-17.77355469 31.98519531 -17.76195312 31.13054687 -17.75 30.25 C-16.43 29.92 -15.11 29.59 -13.75 29.25 C-10.75 35 -10.75 35 -10.75 37.25 C-5.82262981 39.22094808 -1.96979128 39.4299928 3.25 39.25 C3.91 36.94 4.57 34.63 5.25 32.25 C0.81262165 29.87904784 -3.92599437 28.34569007 -8.65625 26.6640625 C-11.79740575 25.22833222 -13.58333933 23.91584229 -15.75 21.25 C-15.75 20.59 -15.75 19.93 -15.75 19.25 C-16.41 19.25 -17.07 19.25 -17.75 19.25 C-17.80437607 17.66705218 -17.84296271 16.08355744 -17.875 14.5 C-17.89820313 13.61828125 -17.92140625 12.7365625 -17.9453125 11.828125 C-17.73531221 9.05612118 -17.29044099 7.55072315 -15.75 5.25 C-10.66524334 1.47240955 -6.23859463 0.07896955 0 0 Z " fill="#C3B8AD" transform="translate(369.75,314.75)"/>
<path d="M0 0 C4.29 0 8.58 0 13 0 C13.33 0.99 13.66 1.98 14 3 C14.66 3.33 15.32 3.66 16 4 C15.67 11.92 15.34 19.84 15 28 C16.32 28.66 17.64 29.32 19 30 C19 30.99 19 31.98 19 33 C18.01 33 17.02 33 16 33 C16.11381897 35.93832645 16.24056551 38.8751065 16.375 41.8125 C16.4059375 42.64587891 16.436875 43.47925781 16.46875 44.33789062 C16.50742187 45.14033203 16.54609375 45.94277344 16.5859375 46.76953125 C16.63306885 47.87711792 16.63306885 47.87711792 16.68115234 49.00708008 C16.90834614 51.31349588 16.90834614 51.31349588 19 54 C21.05003955 55.19232613 21.05003955 55.19232613 23 56 C22.67 57.32 22.34 58.64 22 60 C13.75 60 5.5 60 -3 60 C-3 58.35 -3 56.7 -3 55 C-1.02 54.34 0.96 53.68 3 53 C3 35.84 3 18.68 3 1 C2.01 0.67 1.02 0.34 0 0 Z " fill="#FAE9D6" transform="translate(269,299)"/>
<path d="M0 0 C0.02505615 1.03930664 0.0501123 2.07861328 0.07592773 3.14941406 C0.17020926 7.01102703 0.27037908 10.87246883 0.37231445 14.73388672 C0.41558489 16.40409334 0.45726549 18.07434194 0.49731445 19.74462891 C0.55520851 22.14758955 0.6188474 24.55034041 0.68359375 26.953125 C0.70030624 27.69806213 0.71701874 28.44299927 0.73423767 29.21051025 C0.83061695 32.59509934 0.96070174 35.7600524 2 39 C3.32 39.33 4.64 39.66 6 40 C5.67 41.32 5.34 42.64 5 44 C-0.28 44 -5.56 44 -11 44 C-11 42.35 -11 40.7 -11 39 C-14.465 39.495 -14.465 39.495 -18 40 C-18 38.68 -18 37.36 -18 36 C-16.02 35.505 -16.02 35.505 -14 35 C-14 34.34 -14 33.68 -14 33 C-13.34 33 -12.68 33 -12 33 C-12 24.75 -12 16.5 -12 8 C-13.32 7.67 -14.64 7.34 -16 7 C-16.33 6.01 -16.66 5.02 -17 4 C-16.67 3.34 -16.34 2.68 -16 2 C-13.78515625 1.62109375 -13.78515625 1.62109375 -11.0625 1.4375 C-7.09844079 1.15801957 -3.94501733 0 0 0 Z " fill="#F6E8D7" transform="translate(161,315)"/>
<path d="M0 0 C14.63025939 0.14883275 27.41876594 4.07589337 40.0625 11.3125 C39.0625 14.3125 39.0625 14.3125 37.05859375 15.41015625 C34.40314935 16.41152231 31.74658083 17.39033773 29.0625 18.3125 C28.40765625 18.54324219 27.7528125 18.77398437 27.078125 19.01171875 C20.96069603 20.8547903 14.38692039 20.90081818 8.0625 20.3125 C7.0725 19.6525 6.0825 18.9925 5.0625 18.3125 C5.0625 17.6525 5.0625 16.9925 5.0625 16.3125 C4.4025 16.3125 3.7425 16.3125 3.0625 16.3125 C0.0625 12.85096154 0.0625 12.85096154 0.0625 10.3125 C-0.5975 10.3125 -1.2575 10.3125 -1.9375 10.3125 C-3.5875 7.3425 -5.2375 4.3725 -6.9375 1.3125 C-5.11946751 -0.50553249 -2.45434031 0.05341634 0 0 Z " fill="#8F789B" transform="translate(217.9375,215.6875)"/>
<path d="M0 0 C0.02505615 1.00377686 0.0501123 2.00755371 0.07592773 3.04174805 C0.17035296 6.7785236 0.27048686 10.51512843 0.37231445 14.25170898 C0.41553083 15.86657711 0.45721489 17.48148702 0.49731445 19.09643555 C0.55534048 21.42249117 0.61894029 23.74833904 0.68359375 26.07421875 C0.70030624 26.79212082 0.71701874 27.51002289 0.73423767 28.24967957 C0.84236012 31.93771676 1.13964048 35.4085348 2 39 C3.32 39.33 4.64 39.66 6 40 C6 41.32 6 42.64 6 44 C-1.26 44 -8.52 44 -16 44 C-16 42.35 -16 40.7 -16 39 C-14.68 39 -13.36 39 -12 39 C-11.97088997 35.10418244 -11.95316413 31.208393 -11.9375 27.3125 C-11.92912109 26.20970703 -11.92074219 25.10691406 -11.91210938 23.97070312 C-11.90888672 22.90400391 -11.90566406 21.83730469 -11.90234375 20.73828125 C-11.89710693 19.75899658 -11.89187012 18.77971191 -11.88647461 17.77075195 C-11.99903952 15.02344189 -12.20762473 12.63547818 -13 10 C-13.99 9.34 -14.98 8.68 -16 8 C-16 6.68 -16 5.36 -16 4 C-10.9281989 1.78108702 -5.57112544 0 0 0 Z " fill="#F7E6D3" transform="translate(342,315)"/>
<path d="M0 0 C4.67729286 -0.07476614 9.35422951 -0.12888954 14.03198242 -0.16479492 C15.61960926 -0.17978013 17.20719543 -0.20017546 18.79467773 -0.22631836 C37.70545039 -0.52969974 37.70545039 -0.52969974 46 5 C46 5.66 46 6.32 46 7 C46.66 7 47.32 7 48 7 C50.37310654 10.55965981 50.26915041 12.21962224 50.25 16.4375 C50.25773437 18.13712891 50.25773437 18.13712891 50.265625 19.87109375 C50.01126938 22.86725339 49.72718714 24.56466614 48 27 C47.01 27.33 46.02 27.66 45 28 C44.34 27.67 43.68 27.34 43 27 C43 27.99 43 28.98 43 30 C41.02 30 39.04 30 37 30 C35.875 28.375 35.875 28.375 35 26 C35.66666667 24 36.33333333 22 37 20 C36.75923729 16.39727382 36.75923729 16.39727382 36 13 C35.938125 12.236875 35.87625 11.47375 35.8125 10.6875 C35.07710584 8.71986951 35.07710584 8.71986951 32.5 7.75 C28.12987226 6.68570637 28.12987226 6.68570637 20 7 C20 14.59 20 22.18 20 30 C19.34 30 18.68 30 18 30 C18 22.08 18 14.16 18 6 C17.34 6 16.68 6 16 6 C16 5.01 16 4.02 16 3 C12.7 3 9.4 3 6 3 C6.33 3.99 6.66 4.98 7 6 C6.01 6.495 6.01 6.495 5 7 C2.375 6.0625 2.375 6.0625 0 5 C0 3.35 0 1.7 0 0 Z " fill="#E9DACB" transform="translate(266,297)"/>
<path d="M0 0 C1.21171875 -0.02578125 2.4234375 -0.0515625 3.671875 -0.078125 C7.5248711 0.27520652 9.93175572 1.31605395 13.25 3.25 C13.25 6.88 13.25 10.51 13.25 14.25 C11.6 14.25 9.95 14.25 8.25 14.25 C6.43116991 11.8667054 5.25 10.29181663 5.25 7.25 C-1.03851034 5.95383728 -1.03851034 5.95383728 -6.75 8.25 C-6.72553105 10.67446391 -6.72553105 10.67446391 -5.75 13.25 C-3.00689028 14.94863316 -3.00689028 14.94863316 0.3125 16.0625 C1.41722656 16.48144531 2.52195312 16.90039062 3.66015625 17.33203125 C4.94212891 17.78642578 4.94212891 17.78642578 6.25 18.25 C5.59 18.91 4.93 19.57 4.25 20.25 C4.25 21.57 4.25 22.89 4.25 24.25 C2.93 23.92 1.61 23.59 0.25 23.25 C0.25 24.24 0.25 25.23 0.25 26.25 C1.57 26.58 2.89 26.91 4.25 27.25 C2.17446352 27.8034764 0.40634036 28.25 -1.75 28.25 C-1.75 27.59 -1.75 26.93 -1.75 26.25 C-2.843125 26.146875 -3.93625 26.04375 -5.0625 25.9375 C-8.83456978 25.23423275 -9.3931678 24.94352251 -11.75 22.25 C-13.85332891 21.53552357 -13.85332891 21.53552357 -15.75 21.25 C-15.75 20.59 -15.75 19.93 -15.75 19.25 C-16.41 19.25 -17.07 19.25 -17.75 19.25 C-17.80437607 17.66705218 -17.84296271 16.08355744 -17.875 14.5 C-17.89820313 13.61828125 -17.92140625 12.7365625 -17.9453125 11.828125 C-17.73531221 9.05612118 -17.29044099 7.55072315 -15.75 5.25 C-10.66524334 1.47240955 -6.23859463 0.07896955 0 0 Z " fill="#E9D9C6" transform="translate(369.75,314.75)"/>
<path d="M0 0 C-1.375 1.5 -1.375 1.5 -3 3 C-3.66 3 -4.32 3 -5 3 C-4.67 3.99 -4.34 4.98 -4 6 C-4.5775 6.29132813 -5.155 6.58265625 -5.75 6.8828125 C-8.00995391 8.13049539 -10.02988721 9.32799638 -12 11 C-12.67012422 14.2140814 -12.67012422 14.2140814 -12 17 C-7.79405774 17.72795155 -5.19895255 18.04973814 -1 17 C-1 13.04 -1 9.08 -1 5 C-1.66 4.67 -2.32 4.34 -3 4 C-2.01 4 -1.02 4 0 4 C0.33 9.94 0.66 15.88 1 22 C-9 28 -9 28 -15 28 C-18.62525975 26.60566933 -21.5677556 25.07230872 -24 22 C-25.46453029 17.60640912 -25.59866799 13.79600396 -24.125 9.375 C-20.77684701 5.63294666 -16.55539708 3.97063103 -12 2 C-11.24332031 1.66484375 -10.48664063 1.3296875 -9.70703125 0.984375 C-6.0163194 -0.53899574 -3.79811064 -1.22141884 0 0 Z " fill="#E2D5C5" transform="translate(247,333)"/>
<path d="M0 0 C0.598125 0.185625 1.19625 0.37125 1.8125 0.5625 C4.16408762 1.22093687 4.16408762 1.22093687 7 0 C7.02505615 0.77190674 7.0501123 1.54381348 7.07592773 2.33911133 C7.19184007 5.83041181 7.31458824 9.32143922 7.4375 12.8125 C7.47681641 14.02744141 7.51613281 15.24238281 7.55664062 16.49414062 C7.61948242 18.23920898 7.61948242 18.23920898 7.68359375 20.01953125 C7.72025146 21.09307861 7.75690918 22.16662598 7.79467773 23.27270508 C7.89541847 26.09311553 7.89541847 26.09311553 9 29 C11.01508358 29.73323796 11.01508358 29.73323796 13 30 C13 30.99 13 31.98 13 33 C7.06 33 1.12 33 -5 33 C-4.34 31.68 -3.68 30.36 -3 29 C-2.6675456 26.26175942 -2.6675456 26.26175942 -2.65625 23.28125 C-2.62660156 22.18425781 -2.59695312 21.08726562 -2.56640625 19.95703125 C-2.54449219 18.81621094 -2.52257812 17.67539062 -2.5 16.5 C-2.45657605 14.2394004 -2.40483625 11.97894129 -2.34375 9.71875 C-2.32505859 8.71779297 -2.30636719 7.71683594 -2.28710938 6.68554688 C-1.99851417 3.98610193 -1.37829733 2.31366877 0 0 Z " fill="#F8E8D4" transform="translate(207,325)"/>
<path d="M0 0 C3.7229703 2.6592645 6.55543557 5.73587115 8.625 9.875 C8.69496014 11.58202735 8.70940154 13.29168003 8.6875 15 C8.67847656 15.91007812 8.66945313 16.82015625 8.66015625 17.7578125 C8.64855469 18.45648438 8.63695312 19.15515625 8.625 19.875 C5.875 20.125 5.875 20.125 2.625 19.875 C0.4375 17.9375 0.4375 17.9375 -1.375 15.875 C-2.365 15.545 -3.355 15.215 -4.375 14.875 C-3.715 14.875 -3.055 14.875 -2.375 14.875 C-3.86 10.42 -3.86 10.42 -5.375 5.875 C-8.68067489 5.02112895 -8.68067489 5.02112895 -12.375 4.875 C-15.30982579 6.8830387 -16.1908115 8.19964216 -17.125 11.625 C-17.2075 12.3675 -17.29 13.11 -17.375 13.875 C-17.705 13.875 -18.035 13.875 -18.375 13.875 C-19.035 11.895 -19.695 9.915 -20.375 7.875 C-22.685 8.535 -24.995 9.195 -27.375 9.875 C-27.045 8.555 -26.715 7.235 -26.375 5.875 C-25.715 5.875 -25.055 5.875 -24.375 5.875 C-24.375 5.215 -24.375 4.555 -24.375 3.875 C-23.055 3.545 -21.735 3.215 -20.375 2.875 C-20.375 2.215 -20.375 1.555 -20.375 0.875 C-13.85286821 -1.94538132 -6.72068317 -2.24022772 0 0 Z " fill="#D0C5B9" transform="translate(419.375,316.125)"/>
<path d="M0 0 C4.63031607 2.09785078 8.09489265 4.16202327 10 9 C10.22705078 11.93261719 10.22705078 11.93261719 10.1953125 15.296875 C10.18886719 16.50214844 10.18242187 17.70742188 10.17578125 18.94921875 C10.15902344 20.20347656 10.14226562 21.45773437 10.125 22.75 C10.11597656 24.01972656 10.10695312 25.28945313 10.09765625 26.59765625 C10.07409005 29.73196093 10.04118832 32.86588541 10 36 C9.67 36 9.34 36 9 36 C8.505 23.625 8.505 23.625 8 11 C7.01 11.33 6.02 11.66 5 12 C4.01 11.67 3.02 11.34 2 11 C0.96561492 14.10315525 0.84589039 16.36548119 0.7890625 19.62109375 C0.76070312 20.72130859 0.73234375 21.82152344 0.703125 22.95507812 C0.6511329 25.27262611 0.60683451 27.59035974 0.5703125 29.90820312 C0.52390625 31.56045898 0.52390625 31.56045898 0.4765625 33.24609375 C0.45674316 34.25341553 0.43692383 35.2607373 0.41650391 36.29858398 C0 39 0 39 -3 43 C2.94 43 8.88 43 15 43 C15 42.01 15 41.02 15 40 C13.35 39.67 11.7 39.34 10 39 C10.33 38.34 10.66 37.68 11 37 C12.65 37.66 14.3 38.32 16 39 C16 40.65 16 42.3 16 44 C8.41 44 0.82 44 -7 44 C-7.33 42.68 -7.66 41.36 -8 40 C-5.525 39.505 -5.525 39.505 -3 39 C-2.97102565 34.72918086 -2.95321004 30.45838691 -2.9375 26.1875 C-2.92912109 24.97255859 -2.92074219 23.75761719 -2.91210938 22.50585938 C-2.90888672 21.34248047 -2.90566406 20.17910156 -2.90234375 18.98046875 C-2.89710693 17.90692139 -2.89187012 16.83337402 -2.88647461 15.72729492 C-2.87805412 12.90500635 -2.87805412 12.90500635 -4 10 C-5.8871875 9.9690625 -5.8871875 9.9690625 -7.8125 9.9375 C-8.52019531 9.92589844 -9.22789062 9.91429687 -9.95703125 9.90234375 C-12.20305461 9.91736783 -12.20305461 9.91736783 -15 11 C-15 9.68 -15 8.36 -15 7 C-13.88625 6.896875 -12.7725 6.79375 -11.625 6.6875 C-10.42875 6.460625 -9.2325 6.23375 -8 6 C-7.34 5.01 -6.68 4.02 -6 3 C-3.375 1.8125 -3.375 1.8125 -1 1 C-5.455 1.495 -5.455 1.495 -10 2 C-6.19355712 -0.53762859 -4.52642303 -0.51942559 0 0 Z " fill="#DBCFC1" transform="translate(205,315)"/>
<path d="M0 0 C0.33 0 0.66 0 1 0 C1.33 14.85 1.66 29.7 2 45 C3.32 45 4.64 45 6 45 C7.63676257 43.0399719 7.63676257 43.0399719 9 41 C9.66 41 10.32 41 11 41 C11 36.71 11 32.42 11 28 C11.66 28 12.32 28 13 28 C13.04898437 29.19238281 13.09796875 30.38476562 13.1484375 31.61328125 C13.22347604 33.17971068 13.2990234 34.74611579 13.375 36.3125 C13.4059375 37.09818359 13.436875 37.88386719 13.46875 38.69335938 C13.50742187 39.45068359 13.54609375 40.20800781 13.5859375 40.98828125 C13.63306885 42.03302612 13.63306885 42.03302612 13.68115234 43.09887695 C13.92118253 45.32532739 13.92118253 45.32532739 16 48 C18.05003955 49.19232613 18.05003955 49.19232613 20 50 C19.67 51.32 19.34 52.64 19 54 C10.75 54 2.5 54 -6 54 C-6 52.35 -6 50.7 -6 49 C-4.02 48.34 -2.04 47.68 0 47 C0 31.49 0 15.98 0 0 Z " fill="#C8BDAF" transform="translate(272,305)"/>
<path d="M0 0 C0.33 0 0.66 0 1 0 C1 10.56 1 21.12 1 32 C0.34 32 -0.32 32 -1 32 C-1.33 32.99 -1.66 33.98 -2 35 C-2.99 34.01 -3.98 33.02 -5 32 C-5.99 33.32 -6.98 34.64 -8 36 C-11.05483029 18.58746736 -11.05483029 18.58746736 -8 10 C-7.34 9.67 -6.68 9.34 -6 9 C-6.165 8.38125 -6.33 7.7625 -6.5 7.125 C-7 5 -7 5 -7 3 C-3.535 2.505 -3.535 2.505 0 2 C0 1.34 0 0.68 0 0 Z " fill="#F5E6D4" transform="translate(340,317)"/>
<path d="M0 0 C2.18934855 1.9704137 3.91131711 3.77871551 5.5 6.25 C5.17 6.91 4.84 7.57 4.5 8.25 C3.51 8.58 2.52 8.91 1.5 9.25 C1.17 7.93 0.84 6.61 0.5 5.25 C0.025625 5.745 -0.44875 6.24 -0.9375 6.75 C-2.5 8.25 -2.5 8.25 -3.5 8.25 C-3.83 10.23 -4.16 12.21 -4.5 14.25 C-4.83 14.25 -5.16 14.25 -5.5 14.25 C-5.603125 13.13625 -5.70625 12.0225 -5.8125 10.875 C-6.039375 9.67875 -6.26625 8.4825 -6.5 7.25 C-9.74926122 5.08382585 -10.0985242 5.03664331 -13.6875 5.625 C-15.5746875 5.934375 -15.5746875 5.934375 -17.5 6.25 C-17.6546875 7.3946875 -17.6546875 7.3946875 -17.8125 8.5625 C-18.56124739 11.48942162 -19.01692929 12.56505916 -21.5 14.25 C-24.1875 14.4375 -24.1875 14.4375 -26.5 14.25 C-27.3886404 10.7762239 -27.78458564 8.89406224 -26.3125 5.5625 C-20.14721254 -2.30355642 -8.87718739 -4.43859369 0 0 Z " fill="#CAC1B8" transform="translate(251.5,316.75)"/>
<path d="M0 0 C4.67729286 -0.07476614 9.35422951 -0.12888954 14.03198242 -0.16479492 C15.61960926 -0.17978013 17.20719543 -0.20017546 18.79467773 -0.22631836 C35.49541177 -0.49424457 35.49541177 -0.49424457 43 3 C43.495 3.99 43.495 3.99 44 5 C41.36 5.33 38.72 5.66 36 6 C36.66 6.66 37.32 7.32 38 8 C38.125 11.625 38.125 11.625 38 15 C35 11.25 35 11.25 35 9 C29.43361124 6.71635333 26.63726652 7 20 7 C20 14.59 20 22.18 20 30 C19.34 30 18.68 30 18 30 C18 22.08 18 14.16 18 6 C17.34 6 16.68 6 16 6 C16 5.01 16 4.02 16 3 C12.7 3 9.4 3 6 3 C6.33 3.99 6.66 4.98 7 6 C6.01 6.495 6.01 6.495 5 7 C2.375 6.0625 2.375 6.0625 0 5 C0 3.35 0 1.7 0 0 Z " fill="#B7AEA4" transform="translate(266,297)"/>
<path d="M0 0 C1.65 0 3.3 0 5 0 C3.68 0.33 2.36 0.66 1 1 C1.88967921 7.25835073 1.88967921 7.25835073 5.1875 12.5 C8.63585451 14.3391224 11.08594975 14.93133245 15 15 C18.3201606 13.68446467 20.4805934 12.5194066 23 10 C25.125 10.375 25.125 10.375 27 11 C27 12.32 27 13.64 27 15 C26.34 15 25.68 15 25 15 C24.773125 15.5775 24.54625 16.155 24.3125 16.75 C22.39807523 20.03187104 19.82959284 22.39144444 16.1796875 23.60546875 C13.58490854 24.07513304 11.13668234 24.13224363 8.5 24.125 C7.09234375 24.12886719 7.09234375 24.12886719 5.65625 24.1328125 C3.2785737 24.01392868 1.27316904 23.67551722 -1 23 C-1 22.34 -1 21.68 -1 21 C0.98 20.34 2.96 19.68 5 19 C5 18.34 5 17.68 5 17 C4.01 16.67 3.02 16.34 2 16 C2 15.01 2 14.02 2 13 C0.35 13 -1.3 13 -3 13 C-3 12.34 -3 11.68 -3 11 C-3.66 11 -4.32 11 -5 11 C-4.67 10.34 -4.34 9.68 -4 9 C-3.34 9 -2.68 9 -2 9 C-1.34 6.03 -0.68 3.06 0 0 Z " fill="#D9CFC4" transform="translate(401,336)"/>
<path d="M0 0 C1.21171875 -0.02578125 2.4234375 -0.0515625 3.671875 -0.078125 C7.5248711 0.27520652 9.93175572 1.31605395 13.25 3.25 C13.25 6.88 13.25 10.51 13.25 14.25 C11.6 14.25 9.95 14.25 8.25 14.25 C6.43116991 11.8667054 5.25 10.29181663 5.25 7.25 C0.00981342 6.23911971 0.00981342 6.23911971 -5.125 7 C-7.03677108 8.33208558 -7.03677108 8.33208558 -8.75 11.25 C-8.42 8.94 -8.09 6.63 -7.75 4.25 C-8.08 4.25 -8.41 4.25 -8.75 4.25 C-9.1625 4.889375 -9.575 5.52875 -10 6.1875 C-12.14739995 8.71836423 -13.52034596 8.90084821 -16.75 9.25 C-16.6875 7.5 -16.6875 7.5 -15.75 5.25 C-10.56960492 1.51438847 -6.30537672 0.0798149 0 0 Z " fill="#C2BBB1" transform="translate(369.75,314.75)"/>
<path d="M0 0 C2.475 0.495 2.475 0.495 5 1 C4.54775239 6.91492272 3.8417395 12.35199888 2 18 C-3.07672201 18.84612033 -7.84869218 19.26193091 -13 19 C-13.66 18.34 -14.32 17.68 -15 17 C-14.67 16.34 -14.34 15.68 -14 15 C-14.66 14.67 -15.32 14.34 -16 14 C-15.37351562 13.97421875 -14.74703125 13.9484375 -14.1015625 13.921875 C-13.28429687 13.86515625 -12.46703125 13.8084375 -11.625 13.75 C-10.81289062 13.70359375 -10.00078125 13.6571875 -9.1640625 13.609375 C-6.81161073 13.2077908 -6.81161073 13.2077908 -5.7109375 10.953125 C-5.47632812 10.30859375 -5.24171875 9.6640625 -5 9 C-4.34 9 -3.68 9 -3 9 C-2.01 6.03 -1.02 3.06 0 0 Z " fill="#F9E9D7" transform="translate(111,339)"/>
<path d="M0 0 C0.02505615 1.03930664 0.0501123 2.07861328 0.07592773 3.14941406 C0.17020926 7.01102703 0.27037908 10.87246883 0.37231445 14.73388672 C0.41558489 16.40409334 0.45726549 18.07434194 0.49731445 19.74462891 C0.55520851 22.14758955 0.6188474 24.55034041 0.68359375 26.953125 C0.70030624 27.69806213 0.71701874 28.44299927 0.73423767 29.21051025 C0.83061695 32.59509934 0.96070174 35.7600524 2 39 C3.32 39.33 4.64 39.66 6 40 C5.67 41.32 5.34 42.64 5 44 C-0.28 44 -5.56 44 -11 44 C-10.67 43.34 -10.34 42.68 -10 42 C-6.37 42.33 -2.74 42.66 1 43 C0.67402832 42.01700928 0.34805664 41.03401855 0.01220703 40.02124023 C-1.17276043 35.85556557 -1.25625535 31.96673507 -1.1953125 27.66015625 C-1.1924826 26.89319931 -1.18965271 26.12624237 -1.18673706 25.33604431 C-1.17563475 22.91136379 -1.15054967 20.48706691 -1.125 18.0625 C-1.1149573 16.4082085 -1.10583372 14.75391115 -1.09765625 13.09960938 C-1.07572817 9.06626077 -1.04126843 5.0331952 -1 1 C-1.66 1 -2.32 1 -3 1 C-3.33 1.66 -3.66 2.32 -4 3 C-5.32 3 -6.64 3 -8 3 C-8.33 4.65 -8.66 6.3 -9 8 C-9.66 8 -10.32 8 -11 8 C-11 16.25 -11 24.5 -11 33 C-11.33 33 -11.66 33 -12 33 C-12 24.75 -12 16.5 -12 8 C-13.32 7.67 -14.64 7.34 -16 7 C-16.33 6.01 -16.66 5.02 -17 4 C-16.67 3.34 -16.34 2.68 -16 2 C-13.78515625 1.62109375 -13.78515625 1.62109375 -11.0625 1.4375 C-7.09844079 1.15801957 -3.94501733 0 0 0 Z " fill="#BCB9B8" transform="translate(161,315)"/>
<path d="M0 0 C8.25 0 16.5 0 25 0 C25.33 1.32 25.66 2.64 26 4 C25.34 4.66 24.68 5.32 24 6 C22.68 6 21.36 6 20 6 C20 5.34 20 4.68 20 4 C19.34 3.67 18.68 3.34 18 3 C18.33 2.67 18.66 2.34 19 2 C15.37 2 11.74 2 8 2 C8.99 3.485 8.99 3.485 10 5 C9.67 5.99 9.34 6.98 9 8 C8.34 8 7.68 8 7 8 C7 22.85 7 37.7 7 53 C6.67 53 6.34 53 6 53 C5.67 37.82 5.34 22.64 5 7 C2.525 6.01 2.525 6.01 0 5 C-0.33 4.01 -0.66 3.02 -1 2 C-0.67 1.34 -0.34 0.68 0 0 Z " fill="#7E7971" transform="translate(70,297)"/>
<path d="M0 0 C1.65 0.33 3.3 0.66 5 1 C5.4928685 3.68510653 5.38044643 5.41661579 3.875 7.72509766 C2.30134118 9.64043304 0.67289946 11.48323718 -1 13.3125 C-1.85851562 14.28026367 -1.85851562 14.28026367 -2.734375 15.26757812 C-4.14529245 16.85486025 -5.57122508 18.42877282 -7 20 C-8.32 19.67 -9.64 19.34 -11 19 C-11.39056793 16.07961705 -11.52303949 13.86925596 -9.96875 11.28613281 C-8.53871498 9.50163599 -7.04898905 7.80719449 -5.5 6.125 C-4.97535156 5.53203125 -4.45070313 4.9390625 -3.91015625 4.328125 C-2.61990431 2.87365918 -1.31167447 1.43517628 0 0 Z " fill="#B1655D" transform="translate(294,160)"/>
<path d="M0 0 C1.66611905 -0.042721 3.33382885 -0.04063832 5 0 C7.36221407 2.36221407 6.23330839 8.20359358 6.25 11.375 C6.270625 12.34695312 6.29125 13.31890625 6.3125 14.3203125 C6.31765625 15.25359375 6.3228125 16.186875 6.328125 17.1484375 C6.3374707 18.00614746 6.34681641 18.86385742 6.35644531 19.74755859 C5.92935937 22.44639074 5.08933561 23.30991367 3 25 C2.01 24.67 1.02 24.34 0 24 C-1.27491216 21.45017567 -1.02596616 19.83534576 -0.87890625 16.9921875 C-0.83056641 16.00605469 -0.78222656 15.01992187 -0.73242188 14.00390625 C-0.67634766 12.97136719 -0.62027344 11.93882812 -0.5625 10.875 C-0.51029297 9.83472656 -0.45808594 8.79445312 -0.40429688 7.72265625 C-0.27439054 5.14814884 -0.13941748 2.57400704 0 0 Z " fill="#B26961" transform="translate(260,147)"/>
<path d="M0 0 C3.70956409 1.51754895 5.08625285 3.81949573 7.3203125 7.06640625 C8.81430455 9.31225698 8.81430455 9.31225698 11.1875 11.8125 C12.75 14.125 12.75 14.125 12.5 16.9375 C12.2525 17.659375 12.005 18.38125 11.75 19.125 C10.76 19.455 9.77 19.785 8.75 20.125 C5.49483572 16.96025695 2.42991207 13.79747209 -0.25 10.125 C-0.25 9.465 -0.25 8.805 -0.25 8.125 C-0.91 8.125 -1.57 8.125 -2.25 8.125 C-2.91 6.145 -3.57 4.165 -4.25 2.125 C-2.25 0.125 -2.25 0.125 0 0 Z " fill="#AC665F" transform="translate(231.25,159.875)"/>
<path d="M0 0 C2.1875 -0.3125 2.1875 -0.3125 5 0 C8.54373408 2.88443472 10.95642377 5.51262219 12 10 C11.85728936 12.73188949 11.45882729 15.29291901 11 18 C10.67 18 10.34 18 10 18 C9.66179834 16.4176994 9.32964061 14.83410625 9 13.25 C8.814375 12.36828125 8.62875 11.4865625 8.4375 10.578125 C8 8 8 8 8 4 C7.01 4.495 7.01 4.495 6 5 C5.67 5.99 5.34 6.98 5 8 C4.0206121 9.02019573 3.02104551 10.02149805 2 11 C1.67 11.66 1.34 12.32 1 13 C0.47535156 12.71898437 -0.04929687 12.43796875 -0.58984375 12.1484375 C-4.59592856 10.23954133 -8.82089235 8.88595161 -13.00390625 7.4140625 C-16.08192174 5.9613355 -17.27882356 4.87883604 -19 2 C-14.25 2.75 -14.25 2.75 -12 5 C-10.01643517 5.71408334 -8.01684563 6.38617742 -6 7 C-6 7.66 -6 8.32 -6 9 C-4.35 8.67 -2.7 8.34 -1 8 C-1.99 7.67 -2.98 7.34 -4 7 C-4 6.01 -4 5.02 -4 4 C-3.01 4 -2.02 4 -1 4 C-0.67 2.68 -0.34 1.36 0 0 Z " fill="#E9D9CA" transform="translate(374,334)"/>
<path d="M0 0 C1.875 1.8125 1.875 1.8125 3 4 C3 5.32 3 6.64 3 8 C2.34 8 1.68 8 1 8 C0.34 9.32 -0.32 10.64 -1 12 C-7.34507042 12.35915493 -7.34507042 12.35915493 -9.9375 10.9375 C-11.55479605 7.98831309 -11.18630138 5.29132441 -11 2 C-10.34 2 -9.68 2 -9 2 C-9 1.34 -9 0.68 -9 0 C-5.4314543 -1.18951523 -3.60804584 -0.97717908 0 0 Z " fill="#CEC6BE" transform="translate(341,298)"/>
<path d="M0 0 C0.02505615 1.00377686 0.0501123 2.00755371 0.07592773 3.04174805 C0.17035296 6.7785236 0.27048686 10.51512843 0.37231445 14.25170898 C0.41553083 15.86657711 0.45721489 17.48148702 0.49731445 19.09643555 C0.55534048 21.42249117 0.61894029 23.74833904 0.68359375 26.07421875 C0.70030624 26.79212082 0.71701874 27.51002289 0.73423767 28.24967957 C0.84236012 31.93771676 1.13964048 35.4085348 2 39 C3.485 39.495 3.485 39.495 5 40 C3.68 40 2.36 40 1 40 C1 39.34 1 38.68 1 38 C-0.485 38.495 -0.485 38.495 -2 39 C-2.33 37.35 -2.66 35.7 -3 34 C-2.34 34 -1.68 34 -1 34 C-1.33 24.1 -1.66 14.2 -2 4 C-4.31 4.33 -6.62 4.66 -9 5 C-8.34 7.31 -7.68 9.62 -7 12 C-8.375 13.5 -8.375 13.5 -10 15 C-10.66 15 -11.32 15 -12 15 C-12.103125 14.21625 -12.20625 13.4325 -12.3125 12.625 C-12.77595022 9.66954819 -12.77595022 9.66954819 -16 8 C-16 6.68 -16 5.36 -16 4 C-10.9281989 1.78108702 -5.57112544 0 0 0 Z " fill="#F9EBDD" transform="translate(342,315)"/>
<path d="M0 0 C0.99 0 1.98 0 3 0 C3.33 5.94 3.66 11.88 4 18 C-6 24 -6 24 -12 24 C-16.01519063 22.48483372 -17.60368353 21.5944747 -20 18 C-16.53058454 18.45822468 -13.32604951 18.89131683 -10 20 C-9.67 18.68 -9.34 17.36 -9 16 C-5.34279543 14.94503714 -1.69314372 13.92328593 2 13 C2 9.04 2 5.08 2 1 C1.34 0.67 0.68 0.34 0 0 Z " fill="#BFB5AC" transform="translate(244,337)"/>
<path d="M0 0 C0.33 0 0.66 0 1 0 C1.33 8.91 1.66 17.82 2 27 C3.65 27.33 5.3 27.66 7 28 C7 29.32 7 30.64 7 32 C6.34 32 5.68 32 5 32 C5 32.66 5 33.32 5 34 C-3.03501094 36.43326039 -3.03501094 36.43326039 -7.0625 34.625 C-7.701875 34.08875 -8.34125 33.5525 -9 33 C-8.375 31.125 -8.375 31.125 -7 29 C-5.02 28.34 -3.04 27.68 -1 27 C-0.67 18.09 -0.34 9.18 0 0 Z " fill="#AEA59B" transform="translate(257,325)"/>
<path d="M0 0 C1.2065625 0.0309375 1.2065625 0.0309375 2.4375 0.0625 C2.1075 0.7225 1.7775 1.3825 1.4375 2.0625 C0.4475 1.7325 -0.5425 1.4025 -1.5625 1.0625 C-2.01863591 5.74275871 -2.01863591 5.74275871 -0.25 9.875 C1.29526736 10.96241036 2.86531846 12.01437897 4.4375 13.0625 C1.79011084 14.5231285 0.54301666 15.0625 -2.5625 15.0625 C-3.90231486 15.3687434 -5.23761887 15.69701555 -6.5625 16.0625 C-6.5625 14.4125 -6.5625 12.7625 -6.5625 11.0625 C-7.8825 11.3925 -9.2025 11.7225 -10.5625 12.0625 C-9.9025 12.7225 -9.2425 13.3825 -8.5625 14.0625 C-8.9375 16.1875 -8.9375 16.1875 -9.5625 18.0625 C-9.5625 17.4025 -9.5625 16.7425 -9.5625 16.0625 C-10.2225 16.0625 -10.8825 16.0625 -11.5625 16.0625 C-11.5625 12.7625 -11.5625 9.4625 -11.5625 6.0625 C-10.139375 5.93875 -10.139375 5.93875 -8.6875 5.8125 C-5.46868118 5.41726069 -5.46868118 5.41726069 -4.25 3.0625 C-4.023125 2.4025 -3.79625 1.7425 -3.5625 1.0625 C-2.5625 0.0625 -2.5625 0.0625 0 0 Z " fill="#DDD0C2" transform="translate(363.5625,317.9375)"/>
<path d="M0 0 C-0.33 1.65 -0.66 3.3 -1 5 C-3.43407005 5.86524753 -5.87143184 6.71742865 -8.3125 7.5625 C-9.00279297 7.80935547 -9.69308594 8.05621094 -10.40429688 8.31054688 C-15.66015625 10.11328125 -15.66015625 10.11328125 -19 9 C-19 7.35 -19 5.7 -19 4 C-17.41800369 3.35089846 -15.83434276 2.70585306 -14.25 2.0625 C-13.36828125 1.70285156 -12.4865625 1.34320313 -11.578125 0.97265625 C-7.18375738 -0.68521881 -4.61379747 -1.15344937 0 0 Z " fill="#BA6D64" transform="translate(316,190)"/>
<path d="M0 0 C6.20951767 0.32681672 10.62726592 1.92782493 16 5 C16 6.65 16 8.3 16 10 C12.08430737 11.53593755 9.60037343 10.41598627 5.8125 8.875 C4.74644531 8.45992187 3.68039063 8.04484375 2.58203125 7.6171875 C0 6 0 6 -0.92578125 3.3828125 C-0.95027344 2.59648437 -0.97476563 1.81015625 -1 1 C-0.67 0.67 -0.34 0.34 0 0 Z " fill="#BE7366" transform="translate(212,189)"/>
<path d="M0 0 C0.5775 0.165 1.155 0.33 1.75 0.5 C4.26664369 1.14462031 4.26664369 1.14462031 8 1 C8 1.66 8 2.32 8 3 C9.98 2.67 11.96 2.34 14 2 C14 3.32 14 4.64 14 6 C15.32 6.33 16.64 6.66 18 7 C16.39177661 9.76971806 15.2712494 10.88014562 12.3125 12.1875 C7.80198227 11.93218768 5.93409932 9.9815053 2.63671875 7.0546875 C0.75343541 4.69047023 0.35451466 2.96970248 0 0 Z " fill="#DED2C4" transform="translate(390,346)"/>
<path d="M0 0 C0.99 0 1.98 0 3 0 C4.43093885 5.09771966 5.6282568 9.65981717 5 15 C3.125 16.9375 3.125 16.9375 1 18 C-1 18 -1 18 -2.625 17 C-4.42818694 14.37718264 -4.4685872 12.0609476 -4.37109375 8.9296875 C-3.8217877 6.07329606 -2.16625784 4.82778005 0 3 C0 2.01 0 1.02 0 0 Z " fill="#F7E8D6" transform="translate(379,338)"/>
<path d="M0 0 C0.33 0 0.66 0 1 0 C1.08708752 4.2498709 1.14042181 8.49951239 1.1875 12.75 C1.22520508 14.55984375 1.22520508 14.55984375 1.26367188 16.40625 C1.27817383 18.14648438 1.27817383 18.14648438 1.29296875 19.921875 C1.31653442 21.52434082 1.31653442 21.52434082 1.34057617 23.15917969 C1 26 1 26 -2 30 C3.94 30 9.88 30 16 30 C16 29.01 16 28.02 16 27 C14.35 26.67 12.7 26.34 11 26 C11.33 25.34 11.66 24.68 12 24 C13.65 24.66 15.3 25.32 17 26 C17 27.65 17 29.3 17 31 C9.41 31 1.82 31 -6 31 C-6.33 29.68 -6.66 28.36 -7 27 C-5.35 26.67 -3.7 26.34 -2 26 C-1.34 17.42 -0.68 8.84 0 0 Z " fill="#C2B9B1" transform="translate(204,328)"/>
<path d="M0 0 C1.65 0 3.3 0 5 0 C3.68 0.33 2.36 0.66 1 1 C1.91079762 7.36198935 2.77938384 10.01584556 8 14 C8.38172649 17.18105412 8.43735246 19.12529507 7 22 C9.31 22.33 11.62 22.66 14 23 C14 23.33 14 23.66 14 24 C12.25008666 24.02715383 10.50005055 24.04646551 8.75 24.0625 C7.28820312 24.07990234 7.28820312 24.07990234 5.796875 24.09765625 C3.34241322 24.01195577 1.33831086 23.70706066 -1 23 C-1 22.34 -1 21.68 -1 21 C0.98 20.34 2.96 19.68 5 19 C5 18.34 5 17.68 5 17 C4.01 16.67 3.02 16.34 2 16 C2 15.01 2 14.02 2 13 C0.35 13 -1.3 13 -3 13 C-3 12.34 -3 11.68 -3 11 C-3.66 11 -4.32 11 -5 11 C-4.67 10.34 -4.34 9.68 -4 9 C-3.34 9 -2.68 9 -2 9 C-1.34 6.03 -0.68 3.06 0 0 Z " fill="#BEB4AA" transform="translate(401,336)"/>
<path d="M0 0 C9.75078864 -0.62460568 9.75078864 -0.62460568 14.5 1.75 C16.68934855 3.7204137 18.41131711 5.52871551 20 8 C19.67 8.66 19.34 9.32 19 10 C18.01 10.33 17.02 10.66 16 11 C15.67 9.68 15.34 8.36 15 7 C14.525625 7.495 14.05125 7.99 13.5625 8.5 C12 10 12 10 11 10 C10.67 11.98 10.34 13.96 10 16 C9.67 16 9.34 16 9 16 C8.896875 14.906875 8.79375 13.81375 8.6875 12.6875 C8.02692273 9.14440371 7.7972908 8.06756277 5 6 C5.639375 5.855625 6.27875 5.71125 6.9375 5.5625 C8.97545146 5.18992819 8.97545146 5.18992819 10 4 C10 3.01 10 2.02 10 1 C6.7 1 3.4 1 0 1 C0 0.67 0 0.34 0 0 Z " fill="#E2D5C5" transform="translate(237,315)"/>
<path d="M0 0 C3.54439025 0.80554324 5.6150771 1.6095782 8.1875 4.21875 C11.4421261 9.40649295 10.40906735 16.00174399 10.25 21.875 C10.23195312 23.13570313 10.21390625 24.39640625 10.1953125 25.6953125 C10.14830729 28.79765614 10.08260676 31.8984338 10 35 C9.67 35 9.34 35 9 35 C8.67 26.75 8.34 18.5 8 10 C7.01 10.33 6.02 10.66 5 11 C1.7089159 7.39042389 0.45336079 4.87362847 0 0 Z " fill="#A39990" transform="translate(205,316)"/>
<path d="M0 0 C1.02577148 0.00676758 1.02577148 0.00676758 2.07226562 0.01367188 C3.73571604 0.0253044 5.3991205 0.04323306 7.0625 0.0625 C6.44800003 3.40072957 5.71689171 6.08459492 4.0625 9.0625 C3.4025 9.0625 2.7425 9.0625 2.0625 9.0625 C1.815 9.825625 1.5675 10.58875 1.3125 11.375 C-0.04745558 14.2989045 -1.25335826 15.36254356 -3.9375 17.0625 C-3.6075 15.4125 -3.2775 13.7625 -2.9375 12.0625 C-2.2775 12.0625 -1.6175 12.0625 -0.9375 12.0625 C-0.9375 11.4025 -0.9375 10.7425 -0.9375 10.0625 C-0.2775 10.0625 0.3825 10.0625 1.0625 10.0625 C1.0625 8.0825 1.0625 6.1025 1.0625 4.0625 C0.4025 3.7325 -0.2575 3.4025 -0.9375 3.0625 C-0.6075 2.4025 -0.2775 1.7425 0.0625 1.0625 C-0.9275 1.2275 -1.9175 1.3925 -2.9375 1.5625 C-6.96482942 2.14724517 -10.87224623 2.13382024 -14.9375 2.0625 C-14.9375 1.7325 -14.9375 1.4025 -14.9375 1.0625 C-9.89895894 0.23038724 -5.1249338 -0.0453534 0 0 Z " fill="#786682" transform="translate(313.9375,216.9375)"/>
<path d="M0 0 C-1.375 1.5 -1.375 1.5 -3 3 C-3.66 3 -4.32 3 -5 3 C-4.67 3.99 -4.34 4.98 -4 6 C-7.96 7.98 -7.96 7.98 -12 10 C-12.33 8.68 -12.66 7.36 -13 6 C-13.99 5.67 -14.98 5.34 -16 5 C-16.33 5.66 -16.66 6.32 -17 7 C-19.5625 7.625 -19.5625 7.625 -22 8 C-18.35570551 4.81890556 -14.94803381 2.91749616 -10.4375 1.1875 C-9.32246094 0.74792969 -8.20742187 0.30835938 -7.05859375 -0.14453125 C-4.08150923 -0.9772024 -2.81626214 -1.12237342 0 0 Z " fill="#ADA69E" transform="translate(247,333)"/>
<path d="M0 0 C3 1 3 1 5 4 C5.66 4 6.32 4 7 4 C7.33 3.34 7.66 2.68 8 2 C10 2 10 2 11.625 3.5 C12.07875 3.995 12.5325 4.49 13 5 C13.33 4.01 13.66 3.02 14 2 C15.65 2 17.3 2 19 2 C19.5625 3.9375 19.5625 3.9375 20 6 C19 7 19 7 15.18359375 7.09765625 C13.60153318 7.09098089 12.01948841 7.07901875 10.4375 7.0625 C9.63119141 7.05798828 8.82488281 7.05347656 7.99414062 7.04882812 C5.99606244 7.03700518 3.99802217 7.01906914 2 7 C0.5393715 4.35261084 0 3.10551666 0 0 Z " fill="#F4E8D8" transform="translate(305,352)"/>
<path d="M0 0 C6.52307692 0.61538462 6.52307692 0.61538462 8.9375 2.5625 C9.288125 3.036875 9.63875 3.51125 10 4 C7.36 4.33 4.72 4.66 2 5 C2.66 5.66 3.32 6.32 4 7 C4.125 10.625 4.125 10.625 4 14 C1 10.25 1 10.25 1 8 C-3.98229776 6.08373163 -8.72684667 5.4452885 -14 5 C-14 4.67 -14 4.34 -14 4 C-12.02 4 -10.04 4 -8 4 C-7.67 3.34 -7.34 2.68 -7 2 C-6.01 2.33 -5.02 2.66 -4 3 C-4 3.66 -4 4.32 -4 5 C-2.68 4.67 -1.36 4.34 0 4 C0 2.68 0 1.36 0 0 Z " fill="#B8B0A4" transform="translate(300,298)"/>
<path d="M0 0 C0.33 1.32 0.66 2.64 1 4 C3.31 4.66 5.62 5.32 8 6 C8 5.01 8 4.02 8 3 C8.99 3.33 9.98 3.66 11 4 C10.01 4.495 10.01 4.495 9 5 C9 5.66 9 6.32 9 7 C7.02 7.99 5.04 8.98 3 10 C3.66 11.65 4.32 13.3 5 15 C2.03 14.505 2.03 14.505 -1 14 C-1.73080266 12.02253397 -2.39421747 10.01927511 -3 8 C-2.67 7.34 -2.34 6.68 -2 6 C-2.99 5.34 -3.98 4.68 -5 4 C-4.0409375 3.8453125 -4.0409375 3.8453125 -3.0625 3.6875 C-2.381875 3.460625 -1.70125 3.23375 -1 3 C-0.67 2.01 -0.34 1.02 0 0 Z " fill="#C9BFB3" transform="translate(301,321)"/>
<path d="M0 0 C1.258125 0.12375 2.51625 0.2475 3.8125 0.375 C4.87404297 0.47941406 4.87404297 0.47941406 5.95703125 0.5859375 C8 1 8 1 11 3 C11.29296875 5.6015625 11.29296875 5.6015625 11.1875 8.625 C11.16042969 9.62789063 11.13335937 10.63078125 11.10546875 11.6640625 C11.07066406 12.43492187 11.03585937 13.20578125 11 14 C8.61328125 14.1484375 8.61328125 14.1484375 6 14 C4.18116991 11.6167054 3 10.04181663 3 7 C2.34 6.67 1.68 6.34 1 6 C1.99 5.67 2.98 5.34 4 5 C4.33 4.34 4.66 3.68 5 3 C5.66 4.98 6.32 6.96 7 9 C7 6.69 7 4.38 7 2 C4.69 1.67 2.38 1.34 0 1 C0 0.67 0 0.34 0 0 Z " fill="#E4DDD7" transform="translate(372,315)"/>
<path d="M0 0 C0.53625 0.474375 1.0725 0.94875 1.625 1.4375 C4.42842836 3.28186076 6.69620258 3.62456847 10 4 C10 4.99 10 5.98 10 7 C13.465 6.505 13.465 6.505 17 6 C15.25030136 9.49939727 11.54267474 10.65968805 8 12 C5.00280918 12.56891122 2.04567002 12.85899676 -1 13 C-0.67 12.01 -0.34 11.02 0 10 C1.98 10 3.96 10 6 10 C6 9.01 6 8.02 6 7 C6.33 6.34 6.66 5.68 7 5 C6.21625 4.9175 5.4325 4.835 4.625 4.75 C2 4 2 4 0.6875 1.9375 C0.3471875 0.9784375 0.3471875 0.9784375 0 0 Z " fill="#B1A9A0" transform="translate(133,348)"/>
<path d="M0 0 C3.63 0 7.26 0 11 0 C10.01 0.33 9.02 0.66 8 1 C7.67 2.65 7.34 4.3 7 6 C6.34 6 5.68 6 5 6 C5 14.25 5 22.5 5 31 C4.67 31 4.34 31 4 31 C4 22.75 4 14.5 4 6 C2.68 5.67 1.36 5.34 0 5 C-0.33 4.01 -0.66 3.02 -1 2 C-0.67 1.34 -0.34 0.68 0 0 Z " fill="#A29A93" transform="translate(145,317)"/>
<path d="M0 0 C1.65 0.33 3.3 0.66 5 1 C4.67 4.3 4.34 7.6 4 11 C3.01 10.67 2.02 10.34 1 10 C-0.34136367 10.65035814 -1.67532254 11.3162955 -3 12 C-3.66 11.67 -4.32 11.34 -5 11 C-5 10.34 -5 9.68 -5 9 C-4.34 9 -3.68 9 -3 9 C-2.01 6.03 -1.02 3.06 0 0 Z " fill="#C8C0B5" transform="translate(111,339)"/>
<path d="M0 0 C0.02505615 1.00377686 0.0501123 2.00755371 0.07592773 3.04174805 C0.17035296 6.7785236 0.27048686 10.51512843 0.37231445 14.25170898 C0.41553083 15.86657711 0.45721489 17.48148702 0.49731445 19.09643555 C0.55534048 21.42249117 0.61894029 23.74833904 0.68359375 26.07421875 C0.70030624 26.79212082 0.71701874 27.51002289 0.73423767 28.24967957 C0.84236012 31.93771676 1.13964048 35.4085348 2 39 C2.99 39.33 3.98 39.66 5 40 C3.68 40 2.36 40 1 40 C1 39.34 1 38.68 1 38 C-0.485 38.495 -0.485 38.495 -2 39 C-2.33 37.35 -2.66 35.7 -3 34 C-2.34 34 -1.68 34 -1 34 C-1.11815307 29.76396537 -1.24239432 25.52816674 -1.37231445 21.29248047 C-1.41566231 19.8511238 -1.45733752 18.40971582 -1.49731445 16.96826172 C-1.55502088 14.89795459 -1.61871371 12.82790568 -1.68359375 10.7578125 C-1.72025146 9.5114502 -1.75690918 8.26508789 -1.79467773 6.98095703 C-1.80289479 4.07363058 -1.80289479 4.07363058 -3 2 C-3.66 1.67 -4.32 1.34 -5 1 C-3 0 -3 0 0 0 Z " fill="#CAC2B8" transform="translate(342,315)"/>
<path d="M0 0 C1.65 0.33 3.3 0.66 5 1 C4.44687265 5.02992782 3.8441938 9.02022924 3 13 C2.67 13 2.34 13 2 13 C1.34 11.02 0.68 9.04 0 7 C-2.31 7.66 -4.62 8.32 -7 9 C-6.67 7.68 -6.34 6.36 -6 5 C-5.34 5 -4.68 5 -4 5 C-4 4.34 -4 3.68 -4 3 C-2.68 2.67 -1.36 2.34 0 2 C0 1.34 0 0.68 0 0 Z " fill="#D0C7BB" transform="translate(399,317)"/>
<path d="M0 0 C0.66 0 1.32 0 2 0 C3 3 4 6 5 9 C6.65 9.33 8.3 9.66 10 10 C9.67 10.99 9.34 11.98 9 13 C8.01 12.67 7.02 12.34 6 12 C6 11.34 6 10.68 6 10 C5.34 10 4.68 10 4 10 C3.67 10.99 3.34 11.98 3 13 C1.0625 12.3125 1.0625 12.3125 -1 11 C-1.75 8.375 -1.75 8.375 -2 6 C-1.34 6 -0.68 6 0 6 C0 4.02 0 2.04 0 0 Z " fill="#FAEAD6" transform="translate(309,344)"/>
<path d="M0 0 C0.4125 0.45375 0.825 0.9075 1.25 1.375 C3.06408095 3.05950374 4.75285627 3.99265971 7 5 C6.67 6.32 6.34 7.64 6 9 C-2.25 9 -10.5 9 -19 9 C-19 7.35 -19 5.7 -19 4 C-17.02 3.34 -15.04 2.68 -13 2 C-13.33 2.99 -13.66 3.98 -14 5 C-15.32 5 -16.64 5 -18 5 C-18 5.99 -18 6.98 -18 8 C-10.41 8 -2.82 8 5 8 C2.36893239 5.05270463 2.36893239 5.05270463 0 4 C0 2.68 0 1.36 0 0 Z " fill="#A49F98" transform="translate(285,350)"/>
<path d="M0 0 C0.99 0 1.98 0 3 0 C2.979375 1.216875 2.95875 2.43375 2.9375 3.6875 C2.93175884 6.91977322 3.21233685 9.84934741 4 13 C3.01 13.495 3.01 13.495 2 14 C1.01 13.67 0.02 13.34 -1 13 C-1.02686553 11.02090602 -1.04633375 9.04171029 -1.0625 7.0625 C-1.07410156 5.96035156 -1.08570313 4.85820312 -1.09765625 3.72265625 C-1 1 -1 1 0 0 Z " fill="#F7ECDE" transform="translate(353,344)"/>
<path d="M0 0 C8.25 0 16.5 0 25 0 C25.33 1.32 25.66 2.64 26 4 C25.34 4.66 24.68 5.32 24 6 C22.68 6 21.36 6 20 6 C20 5.34 20 4.68 20 4 C19.34 3.67 18.68 3.34 18 3 C18.33 2.67 18.66 2.34 19 2 C12.73 1.67 6.46 1.34 0 1 C0 0.67 0 0.34 0 0 Z " fill="#99918D" transform="translate(70,297)"/>
<path d="M0 0 C3.3 0 6.6 0 10 0 C10.33 1.98 10.66 3.96 11 6 C10.484375 5.835 9.96875 5.67 9.4375 5.5 C6.26636124 4.84951 3.22781666 4.9379266 0 5 C-0.33 4.01 -0.66 3.02 -1 2 C-0.67 1.34 -0.34 0.68 0 0 Z " fill="#F8ECDD" transform="translate(237,316)"/>
<path d="M0 0 C0.70703125 1.765625 0.70703125 1.765625 1 4 C-0.36328125 5.921875 -0.36328125 5.921875 -2.3125 7.75 C-3.26576172 8.67039063 -3.26576172 8.67039063 -4.23828125 9.609375 C-6 11 -6 11 -8 11 C-8.268125 11.61875 -8.53625 12.2375 -8.8125 12.875 C-10 15 -10 15 -13 17 C-13.66 16.01 -14.32 15.02 -15 14 C-14.14535156 13.30132812 -13.29070312 12.60265625 -12.41015625 11.8828125 C-11.29412047 10.96372421 -10.17824326 10.04444337 -9.0625 9.125 C-8.49853516 8.66480469 -7.93457031 8.20460937 -7.35351562 7.73046875 C-4.22954674 5.24449218 -4.22954674 5.24449218 -2 2 C-1.34 2 -0.68 2 0 2 C0 1.34 0 0.68 0 0 Z " fill="#1D3048" transform="translate(317,231)"/>
<path d="M0 0 C0.99 0.99 1.98 1.98 3 3 C4.65 2.34 6.3 1.68 8 1 C7.67 3.31 7.34 5.62 7 8 C4.69 8.33 2.38 8.66 0 9 C-1.125 3.375 -1.125 3.375 0 0 Z " fill="#E0D4CB" transform="translate(225,322)"/>
<path d="M0 0 C2.475 0.495 2.475 0.495 5 1 C5.042721 2.66611905 5.04063832 4.33382885 5 6 C4.67 6.33 4.34 6.66 4 7 C3.63239269 9.32817964 3.29758419 11.6618385 3 14 C2.01 13.67 1.02 13.34 0 13 C0 8.71 0 4.42 0 0 Z " fill="#BE7669" transform="translate(261,147)"/>
<path d="M0 0 C-0.66 1.32 -1.32 2.64 -2 4 C-3.98 4 -5.96 4 -8 4 C-8.33 4.66 -8.66 5.32 -9 6 C-14.61 6 -20.22 6 -26 6 C-26 5.67 -26 5.34 -26 5 C-25.09378906 4.89042969 -24.18757813 4.78085938 -23.25390625 4.66796875 C-16.83731946 3.83279396 -10.82074076 2.92311594 -4.76953125 0.5859375 C-3 0 -3 0 0 0 Z " fill="#182840" transform="translate(295,250)"/>
<path d="M0 0 C2.125 0.375 2.125 0.375 4 1 C4 2.32 4 3.64 4 5 C3.34 5 2.68 5 2 5 C1.34 6.32 0.68 7.64 0 9 C-0.99 9 -1.98 9 -3 9 C-2.67 7.68 -2.34 6.36 -2 5 C-2.99 5 -3.98 5 -5 5 C-5.33 5.66 -5.66 6.32 -6 7 C-6.66 6.34 -7.32 5.68 -8 5 C-7.05125 4.54625 -6.1025 4.0925 -5.125 3.625 C-1.99686321 2.19761746 -1.99686321 2.19761746 0 0 Z " fill="#A39E99" transform="translate(424,346)"/>
<path d="M0 0 C0.66 0.33 1.32 0.66 2 1 C2 1.99 2 2.98 2 4 C2.66 4 3.32 4 4 4 C4 4.99 4 5.98 4 7 C4.66 7 5.32 7 6 7 C6.598125 8.0725 7.19625 9.145 7.8125 10.25 C9.37401069 12.98958993 11.02605503 15.53256878 13 18 C9.98197607 17.67372714 8.40308719 17.38918764 6.1875 15.25 C4.80391706 12.62847443 4.75639573 10.92325122 5 8 C4.38125 7.9175 3.7625 7.835 3.125 7.75 C1 7 1 7 -0.3125 5.125 C-1 3 -1 3 0 0 Z " fill="#BAB2AC" transform="translate(306,336)"/>
<path d="M0 0 C4.75 0.75 4.75 0.75 7 3 C8.98356483 3.71408334 10.98315437 4.38617742 13 5 C13 5.66 13 6.32 13 7 C13.598125 6.79375 14.19625 6.5875 14.8125 6.375 C17 6 17 6 20 8 C20 8.99 20 9.98 20 11 C19.47535156 10.71898437 18.95070313 10.43796875 18.41015625 10.1484375 C14.40407144 8.23954133 10.17910765 6.88595161 5.99609375 5.4140625 C2.91807826 3.9613355 1.72117644 2.87883604 0 0 Z " fill="#B7B1AA" transform="translate(355,336)"/>
<path d="M0 0 C1.36511719 0.29197266 1.36511719 0.29197266 2.7578125 0.58984375 C3.45648438 0.74582031 4.15515625 0.90179688 4.875 1.0625 C5.205 3.7025 5.535 6.3425 5.875 9.0625 C2.875 7.0625 2.875 7.0625 1.875 4.0625 C1.276875 4.289375 0.67875 4.51625 0.0625 4.75 C-0.659375 4.853125 -1.38125 4.95625 -2.125 5.0625 C-3.75 3.75 -3.75 3.75 -5.125 2.0625 C-5.785 1.4025 -6.445 0.7425 -7.125 0.0625 C-4.4030754 -1.2984623 -2.9418043 -0.64116248 0 0 Z " fill="#F5EADC" transform="translate(374.125,315.9375)"/>
<path d="M0 0 C2 3 2 3 2.25 5.0625 C2.4975 5.701875 2.745 6.34125 3 7 C5.99615946 8.3045656 5.99615946 8.3045656 9 9 C7.02 9.99 7.02 9.99 5 11 C4.34 10.34 3.68 9.68 3 9 C3.66 10.98 4.32 12.96 5 15 C2.6568787 14.74438677 0.32156597 14.40729228 -2 14 C-2.33 13.34 -2.66 12.68 -3 12 C-2.01 11.67 -1.02 11.34 0 11 C-0.185625 10.29875 -0.37125 9.5975 -0.5625 8.875 C-1.05156976 5.66111302 -0.66231558 3.16439664 0 0 Z " fill="#B3ABA0" transform="translate(356,345)"/>
<path d="M0 0 C2.5625 2.1875 2.5625 2.1875 5 5 C4.8125 7.8125 4.8125 7.8125 4 10 C3.01 10.33 2.02 10.66 1 11 C-3.875 6.375 -3.875 6.375 -5 3 C-3.68 3 -2.36 3 -1 3 C-1 4.32 -1 5.64 -1 7 C-0.01 7.33 0.98 7.66 2 8 C2 6.68 2 5.36 2 4 C1.34 4 0.68 4 0 4 C0 2.68 0 1.36 0 0 Z " fill="#925B53" transform="translate(239,169)"/>
<path d="M0 0 C0.33 0 0.66 0 1 0 C1 1.98 1 3.96 1 6 C0.34 6 -0.32 6 -1 6 C-0.67 6.66 -0.34 7.32 0 8 C5.61 8.33 11.22 8.66 17 9 C17.33 8.01 17.66 7.02 18 6 C18 7.32 18 8.64 18 10 C10.74 10 3.48 10 -4 10 C-4 8.35 -4 6.7 -4 5 C-2.68 5 -1.36 5 0 5 C0 3.35 0 1.7 0 0 Z " fill="#9B9590" transform="translate(330,349)"/>
<path d="M0 0 C1.65 0.66 3.3 1.32 5 2 C5 3.32 5 4.64 5 6 C-2.26 6 -9.52 6 -17 6 C-17.33 4.68 -17.66 3.36 -18 2 C-17.34 1.67 -16.68 1.34 -16 1 C-16 2.32 -16 3.64 -16 5 C-10.39 5 -4.78 5 1 5 C0.67 3.35 0.34 1.7 0 0 Z " fill="#938C89" transform="translate(187,353)"/>
<path d="M0 0 C0.99 0.33 1.98 0.66 3 1 C3 1.99 3 2.98 3 4 C4.32 4.33 5.64 4.66 7 5 C5.75 7 5.75 7 4 9 C0 9 0 9 -1.8125 7.25 C-3 5 -3 5 -2.8125 2.8125 C-2 1 -2 1 0 0 Z " fill="#FAE8D4" transform="translate(401,348)"/>
<path d="M0 0 C-0.33 1.98 -0.66 3.96 -1 6 C-3.31 6 -5.62 6 -8 6 C-8 3 -8 3 -6.8125 1.3125 C-4.44258278 -0.40364695 -2.85974334 -0.23187108 0 0 Z " fill="#F6E9D6" transform="translate(416,353)"/>
<path d="M0 0 C0.99 0.33 1.98 0.66 3 1 C3.6875 3.0625 3.6875 3.0625 4 5 C4.33 4.34 4.66 3.68 5 3 C7.0625 2.375 7.0625 2.375 9 2 C9 2.66 9 3.32 9 4 C8.34 4 7.68 4 7 4 C7 4.66 7 5.32 7 6 C4.1875 7.5625 4.1875 7.5625 1 9 C0.01 8.67 -0.98 8.34 -2 8 C-1.34 8 -0.68 8 0 8 C-0.2784375 6.2984375 -0.2784375 6.2984375 -0.5625 4.5625 C-0.7790625 2.7990625 -0.7790625 2.7990625 -1 1 C-0.67 0.67 -0.34 0.34 0 0 Z " fill="#BAB0A7" transform="translate(374,351)"/>
<path d="M0 0 C0.33 0 0.66 0 1 0 C1 1.98 1 3.96 1 6 C-1.62235014 6.86316536 -4.24733452 7.71580779 -6.875 8.5625 C-7.62136719 8.80935547 -8.36773437 9.05621094 -9.13671875 9.31054688 C-14.7734375 11.11328125 -14.7734375 11.11328125 -17 10 C-14.35954494 6.0393174 -12.59830543 5.96416082 -8 5 C-5.30623587 4.85426407 -2.70138973 4.9052144 0 5 C0 3.35 0 1.7 0 0 Z " fill="#915B58" transform="translate(292,209)"/>
<path d="M0 0 C0.2475 0.639375 0.495 1.27875 0.75 1.9375 C1.81562433 4.18741541 1.81562433 4.18741541 4.125 4.75 C4.74375 4.8325 5.3625 4.915 6 5 C5.67 6.32 5.34 7.64 5 9 C-0.28 9 -5.56 9 -11 9 C-10.67 8.34 -10.34 7.68 -10 7 C-6.37 7.33 -2.74 7.66 1 8 C0.67 5.36 0.34 2.72 0 0 Z " fill="#ABA59F" transform="translate(161,350)"/>
<path d="M0 0 C2.97 0 5.94 0 9 0 C8.01 2.31 7.02 4.62 6 7 C5.01 6.34 4.02 5.68 3 5 C2.01 5.66 1.02 6.32 0 7 C0 4.69 0 2.38 0 0 Z " fill="#FAE6CE" transform="translate(331,301)"/>
<path d="M0 0 C0.66 0 1.32 0 2 0 C2.125 4.75 2.125 4.75 1 7 C3.31 7.33 5.62 7.66 8 8 C8 8.33 8 8.66 8 9 C6.25008666 9.02715383 4.50005055 9.04646551 2.75 9.0625 C1.28820312 9.07990234 1.28820312 9.07990234 -0.203125 9.09765625 C-2.65758678 9.01195577 -4.66168914 8.70706066 -7 8 C-7 7.34 -7 6.68 -7 6 C-5.5459375 5.62875 -5.5459375 5.62875 -4.0625 5.25 C-2.5465625 4.63125 -2.5465625 4.63125 -1 4 C-0.03122943 1.96756452 -0.03122943 1.96756452 0 0 Z " fill="#C3BBB0" transform="translate(407,351)"/>
<path d="M0 0 C0 0.99 0 1.98 0 3 C0.3062434 4.33981486 0.63451555 5.67511887 1 7 C-3.43090471 5.79157144 -5.98112756 4.48331435 -9 1 C-3.375 -1.125 -3.375 -1.125 0 0 Z " fill="#6E6079" transform="translate(243,240)"/>
<path d="M0 0 C0.33 1.65 0.66 3.3 1 5 C-0.98 5.99 -0.98 5.99 -3 7 C-3.103125 6.360625 -3.20625 5.72125 -3.3125 5.0625 C-3.539375 4.381875 -3.76625 3.70125 -4 3 C-4.99 2.67 -5.98 2.34 -7 2 C-7.33 2.66 -7.66 3.32 -8 4 C-10.5625 4.625 -10.5625 4.625 -13 5 C-8.8381728 1.20539285 -5.60865625 0 0 0 Z " fill="#C3BAB2" transform="translate(238,336)"/>
<path d="M0 0 C1.33333333 2.66666667 2.66666667 5.33333333 4 8 C0.7 8 -2.6 8 -6 8 C-6 6.68 -6 5.36 -6 4 C-3 3 -3 3 0 4 C0 2.68 0 1.36 0 0 Z " fill="#F5ECE0" transform="translate(418,328)"/>
<path d="M0 0 C0.66 0.33 1.32 0.66 2 1 C2 1.66 2 2.32 2 3 C0.68 3 -0.64 3 -2 3 C-2 3.99 -2 4.98 -2 6 C-5.375 6.625 -5.375 6.625 -9 7 C-9.66 6.34 -10.32 5.68 -11 5 C-9.21289414 4.13633178 -7.4201535 3.28431406 -5.625 2.4375 C-4.62726563 1.96183594 -3.62953125 1.48617187 -2.6015625 0.99609375 C-1.74304688 0.66738281 -0.88453125 0.33867187 0 0 Z " fill="#826F8A" transform="translate(277,224)"/>
<path d="M0 0 C0.99 0 1.98 0 3 0 C3.1953125 6.0546875 3.1953125 6.0546875 3 8 C2.34 8.66 1.68 9.32 1 10 C1 9.34 1 8.68 1 8 C0.01 8.33 -0.98 8.66 -2 9 C-1.125 1.125 -1.125 1.125 0 0 Z " fill="#20324F" transform="translate(331,204)"/>
<path d="M0 0 C0.33 0 0.66 0 1 0 C1 4.29 1 8.58 1 13 C1.99 13.33 2.98 13.66 4 14 C4 15.65 4 17.3 4 19 C3.01 18.67 2.02 18.34 1 18 C0.34 19.32 -0.32 20.64 -1 22 C-0.67 14.74 -0.34 7.48 0 0 Z " fill="#99544D" transform="translate(260,147)"/>
<path d="M0 0 C1.27230469 0.00902344 2.54460937 0.01804688 3.85546875 0.02734375 C5.31919922 0.04474609 5.31919922 0.04474609 6.8125 0.0625 C6.8125 0.3925 6.8125 0.7225 6.8125 1.0625 C0.81929849 2.52183748 -5.04595775 3.47759121 -11.1875 4.0625 C-10.8575 3.0725 -10.5275 2.0825 -10.1875 1.0625 C-6.62704823 -0.12431726 -3.74941663 -0.03439832 0 0 Z " fill="#C87D76" transform="translate(261.1875,178.9375)"/>
<path d="M0 0 C0.33 0.66 0.66 1.32 1 2 C2.65 1.34 4.3 0.68 6 0 C5.29630087 4.74996912 2.29468724 7.70531276 -1 11 C-1.14285714 3.57142857 -1.14285714 3.57142857 0 0 Z " fill="#DA776F" transform="translate(234,201)"/>
<path d="M0 0 C4.29165262 -0.02891949 8.58328036 -0.04677118 12.875 -0.0625 C14.70998047 -0.07506836 14.70998047 -0.07506836 16.58203125 -0.08789062 C18.33193359 -0.09272461 18.33193359 -0.09272461 20.1171875 -0.09765625 C21.73536377 -0.10551147 21.73536377 -0.10551147 23.38623047 -0.11352539 C26 0 26 0 28 1 C27.67 2.32 27.34 3.64 27 5 C27 4.01 27 3.02 27 2 C26.01 2.33 25.02 2.66 24 3 C23.67 2.67 23.34 2.34 23 2 C21.29436222 1.84259395 19.58272756 1.74906608 17.87109375 1.68359375 C16.83662109 1.64169922 15.80214844 1.59980469 14.73632812 1.55664062 C13.64771484 1.51732422 12.55910156 1.47800781 11.4375 1.4375 C10.34501953 1.39431641 9.25253906 1.35113281 8.12695312 1.30664062 C5.41810436 1.20017932 2.70916008 1.09816484 0 1 C0 0.67 0 0.34 0 0 Z " fill="#101F32" transform="translate(233,113)"/>
<path d="M0 0 C1.32 0.33 2.64 0.66 4 1 C4 1.66 4 2.32 4 3 C5.32 3 6.64 3 8 3 C8 3.99 8 4.98 8 6 C7.13375 5.835 6.2675 5.67 5.375 5.5 C2.18774801 5.02781452 -0.78485027 4.92344882 -4 5 C-3.34 4.67 -2.68 4.34 -2 4 C-0.86649466 1.98330173 -0.86649466 1.98330173 0 0 Z " fill="#F8ECDA" transform="translate(339,352)"/>
<path d="M0 0 C1.258125 0.12375 2.51625 0.2475 3.8125 0.375 C4.87404297 0.47941406 4.87404297 0.47941406 5.95703125 0.5859375 C8 1 8 1 11 3 C11.29296875 5.6015625 11.29296875 5.6015625 11.1875 8.625 C11.16042969 9.62789063 11.13335937 10.63078125 11.10546875 11.6640625 C11.07066406 12.43492187 11.03585937 13.20578125 11 14 C10.67 14 10.34 14 10 14 C10 11.69 10 9.38 10 7 C9.01 6.67 8.02 6.34 7 6 C7 4.68 7 3.36 7 2 C4.69 1.67 2.38 1.34 0 1 C0 0.67 0 0.34 0 0 Z " fill="#898480" transform="translate(372,315)"/>
<path d="M0 0 C-0.99 0 -1.98 0 -3 0 C-3 0.66 -3 1.32 -3 2 C-3.99 2.495 -3.99 2.495 -5 3 C-4.67 5.97 -4.34 8.94 -4 12 C-4.33 12 -4.66 12 -5 12 C-5.103125 11.21625 -5.20625 10.4325 -5.3125 9.625 C-5.77595022 6.66954819 -5.77595022 6.66954819 -9 5 C-9 3.68 -9 2.36 -9 1 C-5.57367167 -0.61798838 -3.61944899 -1.34053666 0 0 Z " fill="#AFAAA4" transform="translate(335,318)"/>
<path d="M0 0 C-1.39195915 2.7839183 -3.15575779 2.97898997 -6 4 C-6 4.66 -6 5.32 -6 6 C-7.65 6.33 -9.3 6.66 -11 7 C-11 4 -11 4 -10 1 C-6.59437148 0.22157062 -3.49234244 -0.09978121 0 0 Z " fill="#F7EADC" transform="translate(204,316)"/>
<path d="M0 0 C0.33 0 0.66 0 1 0 C1.62402869 8.26838016 1.62402869 8.26838016 -0.8125 11.125 C-3 12 -3 12 -6 11 C-4.02 7.37 -2.04 3.74 0 0 Z " fill="#1A2F47" transform="translate(325,218)"/>
<path d="M0 0 C1.65 0 3.3 0 5 0 C5.70074844 3.153368 6 5.72724974 6 9 C5.67 8.34 5.34 7.68 5 7 C1.97065509 6.34227572 1.97065509 6.34227572 -1 6 C-0.01 5.67 0.98 5.34 2 5 C1.34 3.35 0.68 1.7 0 0 Z " fill="#D4CABE" transform="translate(286,327)"/>
<path d="M0 0 C3.63 0 7.26 0 11 0 C10.34 1.65 9.68 3.3 9 5 C6.69 4.67 4.38 4.34 2 4 C2.33 3.34 2.66 2.68 3 2 C2.01 1.34 1.02 0.68 0 0 Z " fill="#D8CFC3" transform="translate(403,331)"/>
<path d="M0 0 C1.65 0 3.3 0 5 0 C5.5625 1.9375 5.5625 1.9375 6 4 C5 5 5 5 1.18359375 5.09765625 C-0.39846682 5.09098089 -1.98051159 5.07901875 -3.5625 5.0625 C-4.36880859 5.05798828 -5.17511719 5.05347656 -6.00585938 5.04882812 C-8.00393756 5.03700518 -10.00197783 5.01906914 -12 5 C-12.33 4.34 -12.66 3.68 -13 3 C-7.72 3.33 -2.44 3.66 3 4 C3 3.34 3 2.68 3 2 C2.01 1.34 1.02 0.68 0 0 Z " fill="#9E9894" transform="translate(319,354)"/>
<path d="M0 0 C-0.66 1.65 -1.32 3.3 -2 5 C-4.97 4.505 -4.97 4.505 -8 4 C-8 3.01 -8 2.02 -8 1 C-3.375 -1.125 -3.375 -1.125 0 0 Z " fill="#DDD5CA" transform="translate(78,353)"/>
<path d="M0 0 C1.32 0.33 2.64 0.66 4 1 C4.33 2.65 4.66 4.3 5 6 C4.01 6 3.02 6 2 6 C2 6.66 2 7.32 2 8 C1.34 8 0.68 8 0 8 C0 7.34 0 6.68 0 6 C-1.32 5.67 -2.64 5.34 -4 5 C-3.34 4.67 -2.68 4.34 -2 4 C-1.34 4.33 -0.68 4.66 0 5 C-0.33 4.01 -0.66 3.02 -1 2 C-0.67 1.34 -0.34 0.68 0 0 Z " fill="#B7625A" transform="translate(263,218)"/>
<path d="M0 0 C2.00720923 0.28674418 4.0085944 0.61866701 6 1 C5.3125 2.9375 5.3125 2.9375 4 5 C1.375 5.75 1.375 5.75 -1 6 C-1.042721 4.33388095 -1.04063832 2.66617115 -1 1 C-0.67 0.67 -0.34 0.34 0 0 Z " fill="#ECDFCD" transform="translate(227,320)"/>
<path d="M0 0 C3.3 0 6.6 0 10 0 C10 0.33 10 0.66 10 1 C8.35 1.33 6.7 1.66 5 2 C5.33 2.66 5.66 3.32 6 4 C4.02 4 2.04 4 0 4 C0 5.98 0 7.96 0 10 C-0.33 10 -0.66 10 -1 10 C-1 7.69 -1 5.38 -1 3 C-0.34 2.67 0.32 2.34 1 2 C0.67 1.34 0.34 0.68 0 0 Z " fill="#F9F2E6" transform="translate(401,332)"/>
<path d="M0 0 C0 6.93 0 13.86 0 21 C-0.33 21 -0.66 21 -1 21 C-1.06058594 19.79601562 -1.12117188 18.59203125 -1.18359375 17.3515625 C-1.26799732 15.77602923 -1.35264541 14.20050904 -1.4375 12.625 C-1.47681641 11.8309375 -1.51613281 11.036875 -1.55664062 10.21875 C-1.68893404 5.97398779 -1.68893404 5.97398779 -3 2 C-3.66 1.67 -4.32 1.34 -5 1 C-3 0 -3 0 0 0 Z " fill="#B8B4AF" transform="translate(342,315)"/>
<path d="M0 0 C0.78375 0.04125 1.5675 0.0825 2.375 0.125 C2.02620368 3.38043229 1.35366739 4.14373107 -1.1875 6.375 C-1.991875 6.9525 -2.79625 7.53 -3.625 8.125 C-4.25 5.25 -4.25 5.25 -4.625 2.125 C-2.625 0.125 -2.625 0.125 0 0 Z " fill="#1B2E48" transform="translate(309.625,255.875)"/>
<path d="M0 0 C1.0326802 2.78823655 1.04509293 3.8677274 0.0625 6.75 C-0.288125 7.4925 -0.63875 8.235 -1 9 C-2.65 9 -4.3 9 -6 9 C-5.67 7.68 -5.34 6.36 -5 5 C-3.68 5 -2.36 5 -1 5 C-0.67 3.35 -0.34 1.7 0 0 Z " fill="#BCB7B0" transform="translate(203,349)"/>
<path d="M0 0 C0 1.65 0 3.3 0 5 C-1.65 5 -3.3 5 -5 5 C-5.66 3.68 -6.32 2.36 -7 1 C-4.53721199 -0.231394 -2.7204945 -0.07159196 0 0 Z " fill="#D5766A" transform="translate(220,190)"/>
<path d="M0 0 C2.9375 0.75 2.9375 0.75 6 2 C6.875 4.125 6.875 4.125 7 6 C5.125 6.625 5.125 6.625 3 7 C0.64046906 4.64046906 0.50858587 3.22104383 0 0 Z " fill="#F8EEDF" transform="translate(358,353)"/>
<path d="M0 0 C2.63936793 1.95083716 3.02052507 3.09236282 3.75 6.375 C3.97105271 9.58026434 3.8378937 11.92772311 3 15 C2.67 15 2.34 15 2 15 C1.66048381 13.43883181 1.32867456 11.87598662 1 10.3125 C0.814375 9.44238281 0.62875 8.57226562 0.4375 7.67578125 C0.01027953 5.06287036 -0.07616201 2.64186962 0 0 Z " fill="#A5A69F" transform="translate(382,337)"/>
<path d="M0 0 C0.66 0 1.32 0 2 0 C2 0.66 2 1.32 2 2 C2.66 2 3.32 2 4 2 C4 2.66 4 3.32 4 4 C5.32 4.33 6.64 4.66 8 5 C5.92446352 5.5534764 4.15634036 6 2 6 C2 5.34 2 4.68 2 4 C-0.31 3.67 -2.62 3.34 -5 3 C-4.360625 2.690625 -3.72125 2.38125 -3.0625 2.0625 C-1.06389179 1.1654837 -1.06389179 1.1654837 0 0 Z " fill="#F7EADA" transform="translate(366,337)"/>
<path d="M0 0 C2.31 0.66 4.62 1.32 7 2 C6.360625 2.268125 5.72125 2.53625 5.0625 2.8125 C2.66868314 3.88667752 2.66868314 3.88667752 2 7 C0.68 6.34 -0.64 5.68 -2 5 C-1.34 3.35 -0.68 1.7 0 0 Z " fill="#F8EAD7" transform="translate(303,320)"/>
<path d="M0 0 C0.78375 0.04125 1.5675 0.0825 2.375 0.125 C2.045 0.785 1.715 1.445 1.375 2.125 C0.385 1.795 -0.605 1.465 -1.625 1.125 C-1.625 4.095 -1.625 7.065 -1.625 10.125 C-2.945 9.135 -4.265 8.145 -5.625 7.125 C-4.53409091 0.21590909 -4.53409091 0.21590909 0 0 Z " fill="#F9ECDB" transform="translate(363.625,317.875)"/>
<path d="M0 0 C0.66 0.66 1.32 1.32 2 2 C2.99 1.67 3.98 1.34 5 1 C5 1.66 5 2.32 5 3 C5.66 3.33 6.32 3.66 7 4 C6 5 6 5 2.4375 5.0625 C1.303125 5.041875 0.16875 5.02125 -1 5 C-1 1 -1 1 0 0 Z " fill="#CBC5BC" transform="translate(334,305)"/>
<path d="M0 0 C2.1519437 3.22791555 2.20086443 4.28400809 2 8 C0.125 7.6875 0.125 7.6875 -2 7 C-4 4 -4 4 -4 1 C-2 0 -2 0 0 0 Z " fill="#F8ECD9" transform="translate(357,329)"/>
<path d="M0 0 C2 2 2 2 2.125 5.625 C2.08375 6.73875 2.0425 7.8525 2 9 C0.68 9.33 -0.64 9.66 -2 10 C-2 6.09567131 -1.31626692 3.61973402 0 0 Z " fill="#F7EBDC" transform="translate(425,325)"/>
<path d="M0 0 C-0.66 1.32 -1.32 2.64 -2 4 C-3.65 4 -5.3 4 -7 4 C-7 5.98 -7 7.96 -7 10 C-7.33 10 -7.66 10 -8 10 C-8 7.69 -8 5.38 -8 3 C-7.34 3 -6.68 3 -6 3 C-6 2.34 -6 1.68 -6 1 C-3 0 -3 0 0 0 Z " fill="#9E9791" transform="translate(338,297)"/>
<path d="M0 0 C0.99 0.33 1.98 0.66 3 1 C3 1.33 3 1.66 3 2 C5.31 2.33 7.62 2.66 10 3 C7.06337384 4.95775078 5.4262944 5.56073149 2 6 C1.34 5.67 0.68 5.34 0 5 C0 3.35 0 1.7 0 0 Z " fill="#985D59" transform="translate(297,194)"/>
<path d="M0 0 C2.475 0.495 2.475 0.495 5 1 C5 2.32 5 3.64 5 5 C4.34 5 3.68 5 3 5 C2.67 5.66 2.34 6.32 2 7 C0 4 0 4 0 0 Z " fill="#BBB7B0" transform="translate(111,339)"/>
<path d="M0 0 C0.66 0.33 1.32 0.66 2 1 C1.26418258 2.1549921 0.51069961 3.29874185 -0.25 4.4375 C-0.66765625 5.07558594 -1.0853125 5.71367187 -1.515625 6.37109375 C-3.27248877 8.29902057 -4.46089803 8.61479436 -7 9 C-6.67 7.68 -6.34 6.36 -6 5 C-5.34 5 -4.68 5 -4 5 C-4 4.34 -4 3.68 -4 3 C-2.68 2.67 -1.36 2.34 0 2 C0 1.34 0 0.68 0 0 Z " fill="#A6A09E" transform="translate(399,317)"/>
<path d="M0 0 C-0.66 0 -1.32 0 -2 0 C-2.33 1.98 -2.66 3.96 -3 6 C-4.32 5.67 -5.64 5.34 -7 5 C-7 3.68 -7 2.36 -7 1 C-3.375 -1.125 -3.375 -1.125 0 0 Z " fill="#B3ADA7" transform="translate(177,318)"/>
<path d="M0 0 C3.3 0 6.6 0 10 0 C10 0.66 10 1.32 10 2 C5.545 2.495 5.545 2.495 1 3 C0.67 2.01 0.34 1.02 0 0 Z " fill="#F7EDE3" transform="translate(405,316)"/>
<path d="M0 0 C0 2.62113708 -0.31292445 4.50935112 -1 7 C-0.01 7 0.98 7 2 7 C1.67 7.99 1.34 8.98 1 10 C-0.32 9.67 -1.64 9.34 -3 9 C-3.36923077 3.46153846 -3.36923077 3.46153846 -1.5 1.125 C-1.005 0.75375 -0.51 0.3825 0 0 Z " fill="#865553" transform="translate(286,170)"/>
<path d="M0 0 C0.99 0.66 1.98 1.32 3 2 C0.36 4.31 -2.28 6.62 -5 9 C-5.33 8.01 -5.66 7.02 -6 6 C-5.01 5.67 -4.02 5.34 -3 5 C-1.8499169 3.03327085 -1.8499169 3.03327085 -1 1 C-0.67 0.67 -0.34 0.34 0 0 Z " fill="#1B2C42" transform="translate(225,130)"/>
<path d="M0 0 C6.95230941 -0.44534366 11.59696035 -0.67289916 17 4 C14 5 14 5 11.8125 4.0625 C11.214375 3.711875 10.61625 3.36125 10 3 C10 2.34 10 1.68 10 1 C6.7 1 3.4 1 0 1 C0 0.67 0 0.34 0 0 Z " fill="#8B8681" transform="translate(237,315)"/>
<path d="M0 0 C3.465 1.485 3.465 1.485 7 3 C6.67 3.99 6.34 4.98 6 6 C3.9375 6.6875 3.9375 6.6875 2 7 C1.34 4.69 0.68 2.38 0 0 Z " fill="#796983" transform="translate(251,224)"/>
<path d="M0 0 C0 1.32 0 2.64 0 4 C-2.35171131 3.40138258 -4.6859378 2.73075648 -7 2 C-7.33 1.34 -7.66 0.68 -8 0 C-4.94736336 -0.98120464 -3.05263664 -0.98120464 0 0 Z " fill="#A25A51" transform="translate(257,217)"/>
<path d="M0 0 C1.98 0.495 1.98 0.495 4 1 C3.34 3.97 2.68 6.94 2 10 C1.01 9.34 0.02 8.68 -1 8 C-0.67 5.36 -0.34 2.72 0 0 Z " fill="#D87769" transform="translate(262,151)"/>
<path d="M0 0 C0.66 0 1.32 0 2 0 C1.67 1.32 1.34 2.64 1 4 C2.32 3.67 3.64 3.34 5 3 C5.33 4.32 5.66 5.64 6 7 C2.62537285 6.45276317 0.91765 5.9451 -2 4 C-1.34 2.68 -0.68 1.36 0 0 Z " fill="#A8A39A" transform="translate(250,354)"/>
<path d="M0 0 C0.66 0 1.32 0 2 0 C2.66 1.65 3.32 3.3 4 5 C1.69 5 -0.62 5 -3 5 C-3 4.01 -3 3.02 -3 2 C-2.34 2.33 -1.68 2.66 -1 3 C-0.67 2.01 -0.34 1.02 0 0 Z " fill="#F7EBDB" transform="translate(136,354)"/>
<path d="M0 0 C0.99 0.33 1.98 0.66 3 1 C3 1.66 3 2.32 3 3 C5.31 3 7.62 3 10 3 C10.33 3.66 10.66 4.32 11 5 C9.906875 4.979375 8.81375 4.95875 7.6875 4.9375 C4.05615809 4.81455548 4.05615809 4.81455548 1 6 C0.67 4.02 0.34 2.04 0 0 Z " fill="#B6AFA4" transform="translate(403,316)"/>
<path d="M0 0 C1.65 0 3.3 0 5 0 C3.02 0.99 3.02 0.99 1 2 C1 2.66 1 3.32 1 4 C1.99 4.33 2.98 4.66 4 5 C4 5.66 4 6.32 4 7 C1.525 6.01 1.525 6.01 -1 5 C-0.67 3.35 -0.34 1.7 0 0 Z " fill="#915958" transform="translate(212,189)"/>
<path d="M0 0 C1.625 1.6875 1.625 1.6875 3 4 C2.1875 6.75 2.1875 6.75 1 9 C-0.32 7.68 -1.64 6.36 -3 5 C-2 3 -2 3 -1 2 C-0.67 1.34 -0.34 0.68 0 0 Z " fill="#B9B0A5" transform="translate(295,333)"/>
<path d="M0 0 C1.65 0 3.3 0 5 0 C5 1.65 5 3.3 5 5 C5.99 4.67 6.98 4.34 8 4 C7.67 4.99 7.34 5.98 7 7 C5.68 7 4.36 7 3 7 C3.061875 6.21625 3.12375 5.4325 3.1875 4.625 C3.125625 3.75875 3.06375 2.8925 3 2 C2.01 1.34 1.02 0.68 0 0 Z " fill="#ADA59D" transform="translate(182,315)"/>
<path d="M0 0 C4.875 4.625 4.875 4.625 6 8 C5.01 8.33 4.02 8.66 3 9 C2.67 7.02 2.34 5.04 2 3 C1.01 2.67 0.02 2.34 -1 2 C-0.67 1.34 -0.34 0.68 0 0 Z " fill="#AE655E" transform="translate(283,187)"/>
<path d="M0 0 C1.125 3.75 1.125 3.75 0 6 C-1.97888961 6.72693904 -3.97954558 7.39816251 -6 8 C-2.25 1.125 -2.25 1.125 0 0 Z " fill="#A35B57" transform="translate(243,185)"/>
<path d="M0 0 C0.33 0.66 0.66 1.32 1 2 C1.99 1.67 2.98 1.34 4 1 C4.33 1.99 4.66 2.98 5 4 C5.66 4 6.32 4 7 4 C7.33 5.32 7.66 6.64 8 8 C7.01 8.495 7.01 8.495 6 9 C6 8.34 6 7.68 6 7 C5.34 7 4.68 7 4 7 C4 5.68 4 4.36 4 3 C2.68 3 1.36 3 0 3 C0 2.01 0 1.02 0 0 Z " fill="#DC776F" transform="translate(234,169)"/>
<path d="M0 0 C-1.40759521 2.81519043 -3.22583277 3.61291638 -6 5 C-6.99 4.67 -7.98 4.34 -9 4 C-8.34 4 -7.68 4 -7 4 C-7 3.01 -7 2.02 -7 1 C-4 0 -4 0 0 0 Z " fill="#A5A59E" transform="translate(150,354)"/>
<path d="M0 0 C0.99 0.33 1.98 0.66 3 1 C2.67 1.66 2.34 2.32 2 3 C2.66 3 3.32 3 4 3 C4.33 4.98 4.66 6.96 5 9 C2.33264727 6.51047079 0.44253657 4.36591866 -1 1 C-0.67 0.67 -0.34 0.34 0 0 Z " fill="#B5ADA6" transform="translate(301,348)"/>
<path d="M0 0 C6.625 -0.25 6.625 -0.25 10 2 C10 2.99 10 3.98 10 5 C9.46375 4.71125 8.9275 4.4225 8.375 4.125 C5.64719516 2.83288192 2.87387282 1.91441408 0 1 C0 0.67 0 0.34 0 0 Z " fill="#98928C" transform="translate(365,342)"/>
<path d="M0 0 C0.99 0.66 1.98 1.32 3 2 C4.32 2 5.64 2 7 2 C5.35 3.32 3.7 4.64 2 6 C0.68 4.68 -0.64 3.36 -2 2 C-1.34 2 -0.68 2 0 2 C0 1.34 0 0.68 0 0 Z " fill="#F8EAD9" transform="translate(362,330)"/>
<path d="M0 0 C0.99 0 1.98 0 3 0 C3.33 1.65 3.66 3.3 4 5 C3.34 5 2.68 5 2 5 C2 6.32 2 7.64 2 9 C1.01 8.67 0.02 8.34 -1 8 C-0.34 8 0.32 8 1 8 C0.67 5.36 0.34 2.72 0 0 Z " fill="#B2A9A0" transform="translate(416,323)"/>
<path d="M0 0 C1.4606285 2.64738916 2 3.89448334 2 7 C2.99 7.66 3.98 8.32 5 9 C3.35 9 1.7 9 0 9 C-1.125 3.375 -1.125 3.375 0 0 Z " fill="#9B948F" transform="translate(225,322)"/>
<path d="M0 0 C0.33 0 0.66 0 1 0 C1 1.98 1 3.96 1 6 C0.34 6 -0.32 6 -1 6 C-0.67 6.99 -0.34 7.98 0 9 C-1.32 9 -2.64 9 -4 9 C-4 7.68 -4 6.36 -4 5 C-2.68 5 -1.36 5 0 5 C0 3.35 0 1.7 0 0 Z " fill="#B1A7A2" transform="translate(330,349)"/>
<path d="M0 0 C0.66 0.99 1.32 1.98 2 3 C1.01 3.33 0.02 3.66 -1 4 C-2.21869929 6.50447516 -2.21869929 6.50447516 -3 9 C-3.33 9 -3.66 9 -4 9 C-4.33 6.69 -4.66 4.38 -5 2 C-3.33333333 2 -1.66666667 2 0 2 C0 1.34 0 0.68 0 0 Z " fill="#FBEBDD" transform="translate(126,321)"/>
<path d="M0 0 C1.65 0 3.3 0 5 0 C4.67 1.65 4.34 3.3 4 5 C2.68 5 1.36 5 0 5 C-0.33 4.01 -0.66 3.02 -1 2 C-0.67 1.34 -0.34 0.68 0 0 Z " fill="#C3BFB9" transform="translate(145,317)"/>
<path d="M0 0 C1.32 0.33 2.64 0.66 4 1 C2.25 5.875 2.25 5.875 0 7 C0 4.69 0 2.38 0 0 Z " fill="#ECE0D4" transform="translate(331,301)"/>
<path d="M0 0 C2.25 0.25 2.25 0.25 4 1 C4 1.99 4 2.98 4 4 C1.36 4 -1.28 4 -4 4 C-2.25 1.9375 -2.25 1.9375 0 0 Z " fill="#C1B8AF" transform="translate(338,298)"/>
<path d="M0 0 C0.66 0.66 1.32 1.32 2 2 C1.67 2.99 1.34 3.98 1 5 C0.34 5 -0.32 5 -1 5 C-1.33 5.66 -1.66 6.32 -2 7 C-2.33 6.01 -2.66 5.02 -3 4 C-5.00016466 2.79117904 -5.00016466 2.79117904 -7 2 C-4.69 2 -2.38 2 0 2 C0 1.34 0 0.68 0 0 Z " fill="#C6BBB2" transform="translate(78,300)"/>
<path d="M0 0 C0 1.32 0 2.64 0 4 C-1.32 4.33 -2.64 4.66 -4 5 C-4.66 3.68 -5.32 2.36 -6 1 C-3 0 -3 0 0 0 Z " fill="#F9ECDC" transform="translate(300,298)"/>
<path d="M0 0 C0 3 0 6 0 9 C-1.32 8.34 -2.64 7.68 -4 7 C-3.6875 4.625 -3.6875 4.625 -3 2 C-2.01 1.34 -1.02 0.68 0 0 Z " fill="#A084AA" transform="translate(302,232)"/>
<path d="M0 0 C1.98 0 3.96 0 6 0 C5.625 1.9375 5.625 1.9375 5 4 C4.01 4.495 4.01 4.495 3 5 C2.34 4.67 1.68 4.34 1 4 C0.375 1.9375 0.375 1.9375 0 0 Z " fill="#A584AC" transform="translate(299,219)"/>
<path d="M0 0 C1.32 0.33 2.64 0.66 4 1 C4 1.66 4 2.32 4 3 C5.32 3.33 6.64 3.66 8 4 C4.18510326 5.46726798 1.70988378 4.43336419 -2 3 C-1.34 2.67 -0.68 2.34 0 2 C0 1.34 0 0.68 0 0 Z " fill="#A15D58" transform="translate(242,212)"/>
<path d="M0 0 C1.61949011 2.57213134 2.04408751 3.67669159 1.625 6.75 C1.41875 7.4925 1.2125 8.235 1 9 C0.01 8.67 -0.98 8.34 -2 8 C-1.125 1.125 -1.125 1.125 0 0 Z " fill="#CF7B72" transform="translate(291,205)"/>
<path d="M0 0 C0.99 0.33 1.98 0.66 3 1 C2.01 2.485 2.01 2.485 1 4 C0.54605448 6.27912938 0.54605448 6.27912938 0.375 8.6875 C0.30023438 9.49574219 0.22546875 10.30398438 0.1484375 11.13671875 C0.09945313 11.75160156 0.05046875 12.36648438 0 13 C-0.33 13 -0.66 13 -1 13 C-1.02686553 11.02090602 -1.04633375 9.04171029 -1.0625 7.0625 C-1.07410156 5.96035156 -1.08570313 4.85820312 -1.09765625 3.72265625 C-1 1 -1 1 0 0 Z " fill="#BBB4AF" transform="translate(353,344)"/>
<path d="M0 0 C1.64666203 0.1135629 3.29236082 0.24117381 4.9375 0.375 C5.85402344 0.44460938 6.77054688 0.51421875 7.71484375 0.5859375 C8.84599609 0.79089844 8.84599609 0.79089844 10 1 C10.33 1.66 10.66 2.32 11 3 C9.01432292 2.96744792 7.02864583 2.93489583 5.04296875 2.90234375 C2.79694539 2.91736783 2.79694539 2.91736783 0 4 C0 2.68 0 1.36 0 0 Z " fill="#97908B" transform="translate(190,322)"/>
<path d="M0 0 C0.99 0.33 1.98 0.66 3 1 C3 4.3 3 7.6 3 11 C2.67 11 2.34 11 2 11 C1.896875 9.906875 1.79375 8.81375 1.6875 7.6875 C1.02692273 4.14440371 0.7972908 3.06756277 -2 1 C-1.34 0.67 -0.68 0.34 0 0 Z " fill="#928C84" transform="translate(244,320)"/>
<path d="M0 0 C0.99 0.33 1.98 0.66 3 1 C2.67 2.65 2.34 4.3 2 6 C0.68 5.67 -0.64 5.34 -2 5 C-2 3.68 -2 2.36 -2 1 C-1.34 0.67 -0.68 0.34 0 0 Z " fill="#949390" transform="translate(117,317)"/>
<path d="M0 0 C0.99 1.485 0.99 1.485 2 3 C2.680625 3.165 3.36125 3.33 4.0625 3.5 C4.701875 3.665 5.34125 3.83 6 4 C6.33 4.99 6.66 5.98 7 7 C4.69 6.67 2.38 6.34 0 6 C0 4.02 0 2.04 0 0 Z " fill="#945754" transform="translate(232,207)"/>
<path d="M0 0 C0.4125 0.45375 0.825 0.9075 1.25 1.375 C3.06408095 3.05950374 4.75285627 3.99265971 7 5 C7 5.99 7 6.98 7 8 C5 8 5 8 3.5 6.5625 C3.005 6.046875 2.51 5.53125 2 5 C1.34 4.67 0.68 4.34 0 4 C0 2.68 0 1.36 0 0 Z " fill="#8F8B87" transform="translate(285,350)"/>
<path d="M0 0 C2.4375 0.8125 2.4375 0.8125 5 2 C5.33 2.99 5.66 3.98 6 5 C4.35 5 2.7 5 1 5 C0.67 3.35 0.34 1.7 0 0 Z " fill="#BAB2AC" transform="translate(187,353)"/>
<path d="M0 0 C0.33 0 0.66 0 1 0 C1.33 2.97 1.66 5.94 2 9 C1.01 8.01 0.02 7.02 -1 6 C-1 5.34 -1 4.68 -1 4 C-1.66 3.67 -2.32 3.34 -3 3 C-2.01 2.67 -1.02 2.34 0 2 C0 1.34 0 0.68 0 0 Z " fill="#BDB4AA" transform="translate(376,318)"/>
<path d="M0 0 C0.33 0 0.66 0 1 0 C1 1.65 1 3.3 1 5 C-0.875 5.625 -0.875 5.625 -3 6 C-3.66 5.34 -4.32 4.68 -5 4 C-4.0409375 3.8453125 -4.0409375 3.8453125 -3.0625 3.6875 C-2.381875 3.460625 -1.70125 3.23375 -1 3 C-0.67 2.01 -0.34 1.02 0 0 Z " fill="#A26561" transform="translate(227,194)"/>
<path d="M0 0 C2.31 0 4.62 0 7 0 C7 0.99 7 1.98 7 3 C2.25 2.25 2.25 2.25 0 0 Z M-1 2 C2 3 2 3 2 3 Z " fill="#DC7A6C" transform="translate(307,191)"/>
<path d="M0 0 C0.66 0.99 1.32 1.98 2 3 C1.67 3.99 1.34 4.98 1 6 C-0.32 6 -1.64 6 -3 6 C-1.125 1.125 -1.125 1.125 0 0 Z " fill="#1B2E45" transform="translate(181,145)"/>
<path d="M0 0 C0.33 1.32 0.66 2.64 1 4 C0.34 4 -0.32 4 -1 4 C-1 4.66 -1 5.32 -1 6 C-2.65 6.33 -4.3 6.66 -6 7 C-5.67 6.01 -5.34 5.02 -5 4 C-3.35 3.67 -1.7 3.34 0 3 C0 2.01 0 1.02 0 0 Z " fill="#89827E" transform="translate(263,353)"/>
<path d="M0 0 C1.98 0.66 3.96 1.32 6 2 C6 2.99 6 3.98 6 5 C3.03 4.505 3.03 4.505 0 4 C0 2.68 0 1.36 0 0 Z " fill="#F6EFDD" transform="translate(214,353)"/>
<path d="M0 0 C0.33 0 0.66 0 1 0 C1 1.98 1 3.96 1 6 C2.65 5.34 4.3 4.68 6 4 C6 4.99 6 5.98 6 7 C4.02 7.33 2.04 7.66 0 8 C0 5.36 0 2.72 0 0 Z " fill="#FAEEE2" transform="translate(331,347)"/>
<path d="M0 0 C0.66 0.66 1.32 1.32 2 2 C1.96712417 4.72869407 1.43602229 7.2966618 1 10 C0.67 10 0.34 10 0 10 C-1.125 2.25 -1.125 2.25 0 0 Z " fill="#F3EADF" transform="translate(112,347)"/>
<path d="M0 0 C0.99 0.33 1.98 0.66 3 1 C2.34 2.32 1.68 3.64 1 5 C0.01 4.67 -0.98 4.34 -2 4 C-2 3.01 -2 2.02 -2 1 C-1.34 0.67 -0.68 0.34 0 0 Z " fill="#F8EEE0" transform="translate(120,317)"/>
<path d="M0 0 C1.65 0 3.3 0 5 0 C5 2.31 5 4.62 5 7 C2 3.25 2 3.25 2 1 C1.34 0.67 0.68 0.34 0 0 Z " fill="#B2ACA4" transform="translate(299,305)"/>
<path d="M0 0 C0 0.66 0 1.32 0 2 C-0.66 2 -1.32 2 -2 2 C-1.67 3.65 -1.34 5.3 -1 7 C-1.66 7 -2.32 7 -3 7 C-3.66 5.02 -4.32 3.04 -5 1 C-3 0 -3 0 0 0 Z " fill="#9F8AAD" transform="translate(246,239)"/>
<path d="M0 0 C1.65 0 3.3 0 5 0 C5 0.66 5 1.32 5 2 C2.69 2.66 0.38 3.32 -2 4 C-1.34 2.68 -0.68 1.36 0 0 Z " fill="#94574D" transform="translate(277,216)"/>
<path d="M0 0 C0.66 0 1.32 0 2 0 C2.33 1.65 2.66 3.3 3 5 C1.68 5.33 0.36 5.66 -1 6 C-0.67 4.02 -0.34 2.04 0 0 Z " fill="#BB6E61" transform="translate(289,197)"/>
<path d="M0 0 C0.33 0.66 0.66 1.32 1 2 C1.99 2.33 2.98 2.66 4 3 C4 3.66 4 4.32 4 5 C3.34 5 2.68 5 2 5 C2 5.66 2 6.32 2 7 C1.34 7 0.68 7 0 7 C0 4.69 0 2.38 0 0 Z " fill="#DB8279" transform="translate(260,163)"/>
</svg>
